<svg width="19" height="23" viewBox="0 0 19 23" fill="none" xmlns="http://www.w3.org/2000/svg">
<g clip-path="url(#clip0_151_2672)">
<path d="M17.6773 7.54065C17.549 7.64016 15.2846 8.91608 15.2846 11.7532C15.2846 15.0348 18.166 16.1957 18.2522 16.2244C18.2389 16.2952 17.7945 17.8144 16.733 19.3623C15.7866 20.7244 14.7982 22.0844 13.2945 22.0844C11.7908 22.0844 11.4038 21.2109 9.66794 21.2109C7.97629 21.2109 7.37482 22.1131 5.99939 22.1131C4.62396 22.1131 3.66425 20.8527 2.56081 19.3048C1.28268 17.4871 0.25 14.6633 0.25 11.9832C0.25 7.68438 3.04509 5.40453 5.79595 5.40453C7.25762 5.40453 8.47604 6.36424 9.39373 6.36424C10.2672 6.36424 11.6294 5.34704 13.2923 5.34704C13.9225 5.34704 16.1869 5.40453 17.6773 7.54065ZM12.5028 3.52713C13.1905 2.71116 13.677 1.57898 13.677 0.446791C13.677 0.289789 13.6638 0.130575 13.635 0.00231934C12.5161 0.0443341 11.1849 0.747528 10.3822 1.67849C9.75197 2.39495 9.16376 3.52713 9.16376 4.6748C9.16376 4.84728 9.19251 5.01976 9.20577 5.07505C9.27654 5.08831 9.39152 5.10379 9.50651 5.10379C10.5104 5.10379 11.7731 4.43156 12.5028 3.52713Z" fill="white"/>
</g>
<defs>
<clipPath id="clip0_151_2672">
<rect width="18" height="22.113" fill="white" transform="translate(0.25 0.00231934)"/>
</clipPath>
</defs>
</svg>
