<svg width="25" height="25" viewBox="0 0 25 25" fill="none" xmlns="http://www.w3.org/2000/svg">
<path d="M12.5 18.5588C17.179 18.5588 20.466 15.4921 21.9597 13.7436C22.2295 13.4279 22.3644 13.27 22.4532 12.9672C22.5156 12.7543 22.5156 12.3634 22.4532 12.1505C22.3644 11.8477 22.2295 11.6898 21.9597 11.3741C20.466 9.62557 17.179 6.55884 12.5 6.55884C7.82099 6.55884 4.53405 9.62557 3.04027 11.3741C2.77051 11.6898 2.63564 11.8477 2.54683 12.1505C2.48439 12.3634 2.48439 12.7543 2.54683 12.9672C2.63564 13.27 2.77051 13.4279 3.04027 13.7436C4.53405 15.4921 7.82099 18.5588 12.5 18.5588Z" stroke="#BEBEBE" stroke-width="1.5" stroke-linecap="round"/>
<path d="M15.5 12.5588C15.5 14.2157 14.1569 15.5588 12.5 15.5588C10.8431 15.5588 9.5 14.2157 9.5 12.5588C9.5 10.902 10.8431 9.55884 12.5 9.55884C14.1569 9.55884 15.5 10.902 15.5 12.5588Z" stroke="#BEBEBE" stroke-width="1.5" stroke-linecap="round"/>
</svg>
