<svg width="21" height="21" viewBox="0 0 21 21" fill="none" xmlns="http://www.w3.org/2000/svg">
<g clip-path="url(#clip0_151_2676)">
<mask id="mask0_151_2676" style="mask-type:luminance" maskUnits="userSpaceOnUse" x="-4" y="-4" width="29" height="29">
<path d="M-3.25293 -3.94116H24.7471V24.0588H-3.25293V-3.94116Z" fill="white"/>
</mask>
<g mask="url(#mask0_151_2676)">
<path d="M20.7461 10.0588C20.7461 4.536 16.2689 0.058836 10.7461 0.058836C5.22325 0.058836 0.746094 4.536 0.746094 10.0588C0.746094 14.7486 3.97469 18.6837 8.33033 19.7644V13.1147H6.26825V10.0588H8.33033V8.74208C8.33033 5.3384 9.87065 3.7608 13.2123 3.7608C13.8458 3.7608 14.9389 3.885 15.3861 4.00924V6.7794C15.1501 6.75456 14.7402 6.74212 14.2309 6.74212C12.5911 6.74212 11.9576 7.36324 11.9576 8.97812V10.0588H15.2239L14.6628 13.1147H11.9576V19.9856C16.909 19.3876 20.7461 15.1716 20.7461 10.0588Z" fill="white"/>
<path d="M14.6631 13.1147L15.2243 10.0588H11.9579V8.97808C11.9579 7.3632 12.5914 6.74212 14.2312 6.74212C14.7405 6.74212 15.1504 6.75452 15.3864 6.77936V4.00924C14.9392 3.885 13.8461 3.76076 13.2126 3.76076C9.87099 3.76076 8.33063 5.3384 8.33063 8.74208V10.0588H6.26855V13.1147H8.33063V19.7644C9.10435 19.9563 9.91335 20.0588 10.7464 20.0588C11.1566 20.0588 11.5607 20.0336 11.9579 19.9856V13.1147H14.6631Z" fill="#0866FF"/>
</g>
</g>
<defs>
<clipPath id="clip0_151_2676">
<rect width="20" height="20" fill="white" transform="translate(0.75 0.0588379)"/>
</clipPath>
</defs>
</svg>
