<svg width="555" height="555" viewBox="0 0 555 555" fill="none" xmlns="http://www.w3.org/2000/svg">
<path d="M138.928 476.11C138.78 476.11 138.636 476.033 138.556 475.895C138.436 475.689 138.505 475.425 138.711 475.303L251.248 409.885C251.454 409.766 251.718 409.834 251.84 410.043C251.959 410.249 251.891 410.513 251.685 410.634L139.148 476.053C139.077 476.09 139.001 476.11 138.928 476.11Z" fill="#DBDEE4"/>
<path d="M472.833 315.524C472.758 315.524 472.685 315.506 472.618 315.466L419.285 284.668C418.252 284.071 417.634 283.003 417.634 281.811C417.634 280.619 418.248 279.55 419.278 278.95L472.244 248.162C472.452 248.043 472.713 248.111 472.835 248.32C472.955 248.526 472.886 248.789 472.68 248.911L419.717 279.699C418.957 280.14 418.503 280.929 418.503 281.811C418.505 282.691 418.959 283.482 419.724 283.923L473.057 314.722C473.263 314.841 473.334 315.105 473.216 315.311C473.128 315.446 472.981 315.524 472.833 315.524Z" fill="#DBDEE4"/>
<path d="M465.337 316.521C462.213 314.717 462.195 311.792 465.3 309.988C468.403 308.184 473.455 308.184 476.58 309.988C479.705 311.792 479.718 314.717 476.616 316.519C473.511 318.323 468.462 318.323 465.337 316.521Z" fill="white"/>
<path d="M470.977 318.296C468.859 318.296 466.735 317.829 465.118 316.894C463.462 315.938 462.549 314.64 462.547 313.241C462.545 311.852 463.442 310.562 465.076 309.613C468.298 307.743 473.553 307.743 476.79 309.613C478.444 310.568 479.357 311.865 479.359 313.263C479.361 314.653 478.464 315.943 476.828 316.894C475.219 317.829 473.098 318.296 470.977 318.296ZM465.55 316.147C468.553 317.875 473.415 317.88 476.394 316.147C477.752 315.358 478.499 314.334 478.497 313.266C478.495 312.189 477.737 311.158 476.36 310.362C473.36 308.632 468.491 308.629 465.512 310.362C464.156 311.151 463.409 312.173 463.411 313.241C463.413 314.318 464.171 315.351 465.55 316.147Z" fill="#DBDEE4"/>
<path d="M470.939 311.194C472.158 311.194 473.334 311.471 474.172 311.954C474.844 312.342 475.232 312.819 475.232 313.262C475.232 313.701 474.855 314.171 474.194 314.554C473.363 315.037 472.191 315.314 470.974 315.314C469.757 315.314 468.581 315.037 467.743 314.554C467.069 314.166 466.684 313.688 466.684 313.244C466.684 312.806 467.06 312.336 467.721 311.952C468.55 311.469 469.722 311.194 470.939 311.194Z" fill="#FA5A2A"/>
<path d="M443.433 295.539C444.74 295.539 446.006 295.836 446.905 296.356C447.628 296.773 448.042 297.285 448.042 297.761C448.042 298.231 447.637 298.739 446.928 299.151C446.037 299.67 444.776 299.967 443.468 299.967C442.161 299.967 440.897 299.67 439.998 299.151C439.275 298.734 438.861 298.22 438.858 297.744C438.858 297.274 439.264 296.769 439.973 296.356C440.866 295.836 442.127 295.539 443.433 295.539Z" fill="#373B42"/>
<path d="M437.561 481.376C436.685 481.376 435.808 481.15 435.025 480.698L383.738 451.076C383.532 450.956 383.461 450.692 383.578 450.486C383.698 450.278 383.966 450.209 384.17 450.329L435.457 479.951C436.756 480.7 438.372 480.7 439.673 479.944L490.615 450.327C490.821 450.207 491.084 450.276 491.206 450.484C491.326 450.69 491.257 450.954 491.051 451.076L440.109 480.693C439.323 481.148 438.443 481.376 437.561 481.376Z" fill="#DBDEE4"/>
<path d="M481.944 449.383C478.822 451.187 478.804 454.113 481.907 455.917C485.009 457.721 490.06 457.721 493.183 455.917C496.305 454.113 496.321 451.187 493.218 449.385C490.115 447.584 485.067 447.579 481.944 449.383Z" fill="white"/>
<path d="M487.533 457.694C485.415 457.694 483.296 457.226 481.687 456.291C480.054 455.34 479.156 454.053 479.158 452.661C479.16 451.262 480.073 449.964 481.729 449.009C484.969 447.138 490.222 447.14 493.435 449.009C495.071 449.959 495.968 451.247 495.966 452.639C495.964 454.037 495.051 455.334 493.397 456.289C491.777 457.226 489.654 457.694 487.533 457.694ZM482.159 449.758C480.783 450.553 480.023 451.586 480.02 452.663C480.018 453.731 480.765 454.755 482.121 455.544C485.098 457.277 489.962 457.275 492.963 455.544C494.339 454.749 495.097 453.718 495.099 452.641C495.102 451.573 494.355 450.549 492.996 449.76C490.022 448.027 485.162 448.025 482.159 449.758Z" fill="#DBDEE4"/>
<path d="M487.544 454.711C488.761 454.711 489.94 454.434 490.778 453.951C491.449 453.564 491.835 453.087 491.837 452.644C491.837 452.205 491.46 451.735 490.8 451.352C489.969 450.869 488.796 450.592 487.58 450.592C486.363 450.592 485.186 450.869 484.348 451.352C483.675 451.74 483.289 452.218 483.289 452.661C483.289 453.1 483.666 453.57 484.326 453.954C485.153 454.434 486.327 454.711 487.544 454.711Z" fill="#FA5A2A"/>
<path d="M460.05 470.365C461.358 470.365 462.623 470.068 463.523 469.547C464.245 469.13 464.66 468.618 464.66 468.142C464.66 467.672 464.254 467.164 463.545 466.752C462.654 466.234 461.393 465.937 460.088 465.937C458.782 465.937 457.517 466.234 456.619 466.752C455.897 467.169 455.482 467.683 455.482 468.16C455.482 468.629 455.888 469.135 456.595 469.547C457.486 470.068 458.745 470.365 460.05 470.365Z" fill="#373B42"/>
<path d="M144.209 478.947C147.331 477.143 147.349 474.217 144.247 472.413C141.144 470.609 136.093 470.609 132.97 472.413C129.848 474.217 129.832 477.143 132.935 478.944C136.038 480.748 141.086 480.751 144.209 478.947Z" fill="white"/>
<path d="M138.568 480.721C136.449 480.721 134.33 480.253 132.721 479.318C131.086 478.367 130.188 477.079 130.19 475.688C130.193 474.289 131.106 472.993 132.759 472.038C135.995 470.167 141.247 470.167 144.469 472.038C146.103 472.988 147 474.276 146.998 475.665C146.996 477.066 146.083 478.363 144.427 479.318C142.807 480.253 140.686 480.721 138.568 480.721ZM138.619 471.486C136.655 471.486 134.689 471.92 133.189 472.784C131.813 473.58 131.055 474.611 131.053 475.688C131.05 476.756 131.797 477.78 133.156 478.569C136.132 480.302 140.997 480.302 143.995 478.569C145.371 477.773 146.132 476.74 146.134 475.661C146.136 474.593 145.389 473.569 144.033 472.782C142.544 471.92 140.582 471.486 138.619 471.486Z" fill="#DBDEE4"/>
<path d="M138.61 473.617C137.393 473.617 136.214 473.894 135.377 474.378C134.705 474.765 134.32 475.242 134.317 475.685C134.317 476.124 134.694 476.594 135.355 476.977C136.186 477.46 137.358 477.737 138.575 477.737C139.791 477.737 140.968 477.46 141.806 476.977C142.48 476.589 142.865 476.111 142.865 475.667C142.865 475.229 142.489 474.759 141.828 474.375C140.999 473.894 139.827 473.617 138.61 473.617Z" fill="#FA5A2A"/>
<path d="M166.102 457.965C164.794 457.965 163.529 458.262 162.629 458.783C161.907 459.2 161.492 459.711 161.492 460.188C161.492 460.658 161.898 461.165 162.607 461.578C163.498 462.096 164.759 462.393 166.064 462.393C167.37 462.393 168.635 462.096 169.533 461.578C170.255 461.161 170.67 460.647 170.67 460.17C170.67 459.7 170.264 459.195 169.557 458.783C168.668 458.262 167.409 457.965 166.102 457.965Z" fill="#373B42"/>
<path d="M488.914 161.69C488.766 161.69 488.622 161.613 488.54 161.475C488.422 161.269 488.491 161.005 488.699 160.883L497.934 155.536C498.136 155.416 498.404 155.485 498.526 155.693C498.643 155.899 498.575 156.163 498.366 156.285L489.131 161.633C489.063 161.67 488.987 161.69 488.914 161.69Z" fill="#373B42"/>
<path d="M488.914 263.172C488.766 263.172 488.622 263.095 488.54 262.957C488.422 262.751 488.491 262.487 488.699 262.365L497.934 257.018C498.136 256.898 498.404 256.967 498.526 257.175C498.643 257.381 498.575 257.645 498.366 257.767L489.131 263.114C489.063 263.154 488.987 263.172 488.914 263.172Z" fill="#373B42"/>
<path d="M60.3344 238.874C60.1859 238.874 60.0419 238.797 59.9621 238.659C59.8424 238.453 59.9111 238.189 60.1172 238.067L122.723 201.673C124.39 200.707 126.462 200.7 128.131 201.666L191.16 238.067C191.366 238.187 191.437 238.451 191.319 238.657C191.195 238.863 190.931 238.934 190.727 238.814L127.698 202.413C126.296 201.604 124.556 201.606 123.157 202.42L60.5516 238.814C60.4829 238.854 60.4098 238.874 60.3344 238.874Z" fill="#DBDEE4"/>
<path d="M70.9061 238.289C74.0288 236.485 74.0465 233.56 70.9438 231.756C67.8411 229.952 62.7903 229.952 59.6677 231.756C56.5451 233.56 56.5295 236.485 59.6322 238.287C62.7349 240.089 67.7835 240.091 70.9061 238.289Z" fill="white"/>
<path d="M65.2621 240.064C63.1434 240.064 61.0247 239.597 59.4157 238.661C57.7801 237.711 56.8826 236.423 56.8848 235.031C56.887 233.633 57.8001 232.336 59.4534 231.381C62.6957 229.509 67.9459 229.511 71.1638 231.381C72.7972 232.332 73.697 233.62 73.6925 235.009C73.6903 236.41 72.7794 237.706 71.1239 238.661C69.5039 239.597 67.383 240.064 65.2621 240.064ZM65.3152 230.829C63.3517 230.829 61.3859 231.262 59.8855 232.128C58.5093 232.924 57.7513 233.954 57.7491 235.031C57.7469 236.1 58.4937 237.123 59.8523 237.912C62.8309 239.645 67.6932 239.643 70.6918 237.912C72.068 237.117 72.8282 236.086 72.8282 235.007C72.8304 233.939 72.0836 232.915 70.7272 232.126C69.2379 231.264 67.2766 230.829 65.3152 230.829Z" fill="#DBDEE4"/>
<path d="M65.3084 232.961C64.0917 232.961 62.9127 233.238 62.075 233.722C61.4035 234.109 61.0178 234.586 61.0156 235.029C61.0156 235.468 61.3924 235.938 62.0528 236.321C62.8839 236.804 64.0563 237.081 65.273 237.081C66.4897 237.081 67.6665 236.804 68.5042 236.321C69.1779 235.933 69.5636 235.455 69.5636 235.011C69.5636 234.573 69.1868 234.103 68.5264 233.719C67.6975 233.238 66.5251 232.961 65.3084 232.961Z" fill="#FA5A2A"/>
<path d="M92.8001 217.306C91.4926 217.306 90.2271 217.603 89.3273 218.123C88.6049 218.54 88.1904 219.052 88.1904 219.529C88.1904 219.998 88.596 220.506 89.3052 220.918C90.1961 221.437 91.4571 221.734 92.7625 221.734C94.0678 221.734 95.3333 221.437 96.2308 220.918C96.9533 220.501 97.3678 219.987 97.3678 219.511C97.3678 219.041 96.9622 218.536 96.2552 218.123C95.3665 217.603 94.1055 217.306 92.8001 217.306Z" fill="#373B42"/>
<path d="M125.274 419.469C124.175 419.469 123.073 419.185 122.091 418.618L75.4047 391.66C75.1986 391.54 75.1277 391.276 75.2451 391.07C75.3648 390.862 75.633 390.793 75.8369 390.913L122.524 417.871C124.228 418.855 126.342 418.85 128.04 417.862L174.407 390.913C174.613 390.793 174.877 390.862 174.999 391.07C175.119 391.276 175.05 391.54 174.844 391.662L128.476 418.611C127.488 419.183 126.38 419.469 125.274 419.469Z" fill="#DBDEE4"/>
<path d="M82.6914 388.605C85.8162 390.409 85.834 393.335 82.7291 395.139C79.6264 396.943 74.5734 396.943 71.4508 395.139C68.3259 393.335 68.3126 390.409 71.4153 388.608C74.518 386.804 79.5665 386.801 82.6914 388.605Z" fill="white"/>
<path d="M77.1016 396.917C74.9807 396.917 72.8576 396.449 71.2375 395.514C69.5842 394.559 68.6712 393.262 68.6689 391.864C68.6667 390.474 69.5665 389.184 71.1999 388.233C74.42 386.365 79.6724 386.363 82.9103 388.233C84.5658 389.189 85.4789 390.487 85.4811 391.886C85.4833 393.275 84.5836 394.565 82.9502 395.514C81.339 396.449 79.2203 396.917 77.1016 396.917ZM77.0484 387.682C75.0849 387.682 73.1235 388.114 71.6342 388.98C70.2757 389.769 69.5288 390.791 69.5311 391.861C69.5333 392.938 70.2912 393.969 71.6675 394.765C74.666 396.498 79.5328 396.498 82.5114 394.765C83.8677 393.976 84.6168 392.954 84.6146 391.886C84.6124 390.806 83.8544 389.776 82.4759 388.98C80.9778 388.114 79.012 387.682 77.0484 387.682Z" fill="#DBDEE4"/>
<path d="M77.0897 393.934C75.8708 393.934 74.694 393.657 73.8562 393.174C73.1847 392.786 72.7991 392.31 72.7969 391.866C72.7969 391.427 73.1736 390.958 73.8341 390.574C74.6651 390.091 75.8375 389.814 77.0542 389.814C78.2709 389.814 79.4477 390.091 80.2855 390.574C80.9592 390.962 81.3448 391.441 81.3448 391.884C81.3448 392.323 80.968 392.793 80.3076 393.176C79.481 393.657 78.3064 393.934 77.0897 393.934Z" fill="#FA5A2A"/>
<path d="M104.592 409.589C103.285 409.589 102.019 409.292 101.119 408.772C100.397 408.355 99.9824 407.843 99.9824 407.367C99.9824 406.897 100.388 406.389 101.097 405.977C101.988 405.458 103.249 405.161 104.557 405.161C105.864 405.161 107.127 405.458 108.027 405.977C108.75 406.394 109.164 406.908 109.166 407.384C109.166 407.854 108.761 408.359 108.052 408.772C107.159 409.29 105.897 409.589 104.592 409.589Z" fill="#373B42"/>
<path d="M286.675 315.979C286.527 315.979 286.383 315.901 286.303 315.764C286.183 315.558 286.252 315.294 286.458 315.172L482.759 201.064C482.965 200.944 483.229 201.013 483.351 201.221C483.47 201.427 483.402 201.691 483.196 201.811L286.895 315.919C286.824 315.961 286.751 315.979 286.675 315.979Z" fill="#DBDEE4"/>
<path d="M380.667 258.491C379.36 258.491 378.094 258.788 377.195 259.309C376.472 259.726 376.058 260.238 376.058 260.714C376.058 261.184 376.463 261.692 377.172 262.102C378.063 262.62 379.324 262.917 380.63 262.917C381.935 262.917 383.2 262.62 384.098 262.102C384.821 261.685 385.235 261.171 385.235 260.694C385.235 260.225 384.829 259.719 384.122 259.307C383.234 258.788 381.975 258.491 380.667 258.491Z" fill="#373B42"/>
<path opacity="0.1" d="M61.4378 325.431C54.0135 329.717 53.9736 336.656 61.3514 340.944L326.761 495.215C334.136 499.501 346.112 499.501 353.537 495.215L492.529 414.952C499.953 410.666 499.991 403.725 492.615 399.439L227.206 245.168C219.831 240.88 207.854 240.882 200.43 245.168L61.4378 325.431Z" fill="black"/>
<path d="M498.21 396.59C498.21 399.389 496.337 402.226 492.614 404.369L353.607 484.629C351.368 485.921 348.724 486.83 345.908 487.331C344.093 487.679 342.182 487.852 340.292 487.852C338.401 487.852 336.529 487.697 334.696 487.369C331.819 486.868 329.118 485.959 326.862 484.627L61.448 330.361C57.7625 328.238 55.9297 325.459 55.9297 322.68L55.8477 290.292C55.8477 293.091 57.6805 295.89 61.3483 297.993L326.762 452.279C329.058 453.631 331.779 454.538 334.694 455.021C336.526 455.349 338.399 455.484 340.29 455.484C342.18 455.484 344.073 455.311 345.905 454.963C348.705 454.462 351.329 453.554 353.547 452.279L492.517 372.019C496.26 369.838 498.113 367.039 498.113 364.183L498.21 396.59Z" fill="#BEC4CD"/>
<path d="M345.904 454.962V487.332C344.089 487.68 342.179 487.853 340.288 487.853C338.398 487.853 336.525 487.698 334.692 487.37V455.02C336.525 455.348 338.398 455.483 340.288 455.483C342.181 455.485 344.071 455.31 345.904 454.962Z" fill="#F0F2F5"/>
<path d="M340.171 488.284C335.049 488.284 330.244 487.122 326.63 485.01L61.2184 330.74C57.5262 328.608 55.4917 325.744 55.4917 322.677L55.4053 290.332C55.4053 290.321 55.4053 290.309 55.4053 290.298V290.296C55.4053 290.059 55.5981 289.864 55.8374 289.864C56.0746 289.864 56.2696 290.057 56.2696 290.296V290.329C56.2851 293.089 58.1622 295.682 61.5619 297.63L326.978 451.902C330.468 453.939 335.151 455.058 340.169 455.058C340.208 455.058 340.246 455.058 340.286 455.058C345.199 455.041 349.829 453.919 353.324 451.902L492.309 371.638C495.78 369.612 497.69 366.966 497.69 364.185C497.69 363.945 497.883 363.753 498.122 363.753C498.359 363.753 498.555 363.945 498.555 364.185L498.641 396.583C498.641 399.697 496.575 402.598 492.828 404.752L353.827 485.015C350.188 487.107 345.381 488.268 340.293 488.288C340.251 488.284 340.213 488.284 340.171 488.284ZM56.2807 293.72L56.3582 322.675C56.3582 325.421 58.2376 328.018 61.6528 329.991L327.066 484.263C330.55 486.3 335.202 487.419 340.171 487.419C340.211 487.419 340.246 487.419 340.286 487.419C345.228 487.402 349.882 486.28 353.393 484.261L492.393 403.999C495.864 402.004 497.774 399.371 497.774 396.579L497.697 367.569C496.762 369.368 495.08 371.015 492.741 372.38L353.754 452.645C350.13 454.737 345.348 455.898 340.288 455.916C340.248 455.916 340.208 455.916 340.171 455.916C335 455.916 330.165 454.755 326.543 452.643L61.132 298.372C58.8537 297.069 57.2093 295.478 56.2807 293.72Z" fill="#373B42"/>
<path d="M483.802 409.895C483.565 409.895 483.37 409.702 483.37 409.462V377.05C483.37 376.811 483.565 376.618 483.802 376.618C484.039 376.618 484.234 376.811 484.234 377.05V409.462C484.234 409.702 484.039 409.895 483.802 409.895Z" fill="#373B42"/>
<path d="M123.836 349.202C123.816 350.554 123.353 351.523 122.586 351.966L119.749 353.615C120.516 353.152 120.979 352.203 120.999 350.851C120.999 348.127 119.084 344.821 116.724 343.449L96.0689 331.524C94.8589 330.839 93.7907 330.777 93.0039 331.222L95.8407 329.573C96.6274 329.13 97.6956 329.19 98.9057 329.875L119.561 341.8C121.921 343.172 123.836 346.479 123.836 349.202Z" fill="#373B42"/>
<path d="M119.752 354.047C119.605 354.047 119.461 353.971 119.379 353.834C119.257 353.63 119.324 353.366 119.528 353.244C120.182 352.848 120.552 351.997 120.569 350.844C120.569 348.276 118.748 345.124 116.507 343.821L95.8543 331.895C94.8393 331.319 93.8974 331.211 93.2192 331.594C93.0109 331.709 92.7494 331.638 92.6319 331.432C92.5145 331.226 92.5854 330.965 92.7893 330.845L95.626 329.196C96.5834 328.655 97.8245 328.762 99.121 329.498L119.781 341.423C122.258 342.864 124.273 346.352 124.273 349.2C124.273 349.202 124.273 349.204 124.273 349.206C124.251 350.691 123.73 351.802 122.806 352.336L119.971 353.984C119.9 354.029 119.827 354.047 119.752 354.047ZM94.9301 330.601C95.3667 330.703 95.8211 330.885 96.2842 331.146L116.944 343.072C119.464 344.537 121.436 347.952 121.436 350.849C121.427 351.363 121.361 351.833 121.234 352.251L122.373 351.589C123.023 351.212 123.391 350.363 123.411 349.195C123.408 346.622 121.589 343.471 119.348 342.17L98.6955 330.244C97.6738 329.668 96.7386 329.562 96.0604 329.943L94.9301 330.601Z" fill="#373B42"/>
<path d="M116.724 343.453C119.093 344.821 121.006 348.134 120.997 350.858C120.99 353.581 119.064 354.678 116.695 353.309L96.0356 341.377C93.6665 340.009 91.7539 336.696 91.7627 333.972C91.7694 331.249 93.6953 330.152 96.0644 331.521L116.724 343.453Z" fill="white"/>
<path d="M118.62 354.333C117.955 354.333 117.226 354.115 116.479 353.683L95.8192 341.751C93.337 340.32 91.3225 336.829 91.3291 333.972C91.3336 332.499 91.8566 331.386 92.8051 330.843C93.7559 330.296 94.9925 330.404 96.2779 331.147L116.937 343.079C119.422 344.513 121.434 348.003 121.425 350.858C121.421 352.329 120.898 353.442 119.951 353.987C119.553 354.217 119.105 354.333 118.62 354.333ZM94.1415 331.364C93.8068 331.364 93.501 331.439 93.2373 331.592C92.568 331.975 92.1979 332.822 92.1934 333.975C92.1868 336.554 94.0085 339.708 96.2513 341.002L116.911 352.934C117.921 353.517 118.852 353.626 119.524 353.238C120.193 352.852 120.561 352.008 120.565 350.855C120.574 348.276 118.753 345.122 116.51 343.826L95.8502 331.893C95.2363 331.541 94.6534 331.364 94.1415 331.364Z" fill="#373B42"/>
<path d="M61.4378 282.491C54.0135 286.778 53.9736 293.717 61.3514 298.005L326.761 452.275C334.136 456.562 346.112 456.562 353.537 452.275L492.529 372.013C499.953 367.727 499.991 360.786 492.615 356.5L227.206 202.229C219.831 197.941 207.854 197.943 200.43 202.229L61.4378 282.491Z" fill="#373B42"/>
<path d="M340.131 455.908C335.204 455.908 330.282 454.822 326.543 452.648L61.1341 298.377C57.4419 296.23 55.4096 293.353 55.4141 290.275C55.4185 287.177 57.4818 284.278 61.225 282.117L200.217 201.855C207.739 197.509 219.948 197.509 227.425 201.855L492.835 356.125C496.529 358.273 498.561 361.152 498.555 364.23C498.55 367.33 496.487 370.227 492.744 372.388L353.752 452.65C349.991 454.822 345.057 455.908 340.131 455.908ZM61.44 282.492L61.6549 282.866C58.191 284.867 56.2806 287.5 56.2762 290.277C56.2717 293.036 58.1511 295.647 61.5685 297.633L326.978 451.903C334.214 456.112 346.033 456.112 353.32 451.903L492.311 371.641C495.775 369.64 497.686 367.009 497.69 364.23C497.695 361.471 495.815 358.86 492.398 356.874L226.989 202.604C219.751 198.395 207.932 198.395 200.647 202.604L61.6549 282.864L61.44 282.492Z" fill="#373B42"/>
<path d="M58.4307 290.28C58.4307 292.199 59.9687 294.202 62.6459 295.758L328.057 450.031C331.235 451.879 335.521 452.899 340.133 452.899C344.73 452.899 349.031 451.879 352.243 450.031L491.228 369.766C493.958 368.195 495.53 366.172 495.53 364.219C495.53 362.3 493.992 360.296 491.314 358.741L225.905 204.468C222.727 202.62 218.441 201.6 213.829 201.6C209.233 201.6 204.931 202.62 201.72 204.468L62.7345 284.732C60.002 286.304 58.4307 288.327 58.4307 290.28Z" fill="white"/>
<path d="M340.136 453.328C335.453 453.328 331.087 452.289 327.843 450.4L62.4312 296.13C59.6166 294.494 58.001 292.362 58.001 290.279C58.001 288.172 59.6476 286.013 62.5176 284.357L201.505 204.095C204.783 202.207 209.162 201.167 213.832 201.167C218.517 201.167 222.883 202.207 226.125 204.095L491.536 358.366C494.351 360.001 495.967 362.135 495.967 364.219C495.967 366.328 494.32 368.487 491.45 370.14L352.465 450.403C349.185 452.289 344.808 453.328 340.136 453.328ZM213.832 202.032C209.311 202.032 205.087 203.029 201.937 204.844L62.9498 285.106C60.3524 286.602 58.8653 288.488 58.8653 290.279C58.8653 292.048 60.3236 293.907 62.8656 295.383L328.277 449.656C331.393 451.469 335.602 452.466 340.136 452.466C344.659 452.466 348.883 451.469 352.03 449.654L491.016 369.391C493.613 367.895 495.1 366.012 495.1 364.219C495.1 362.45 493.642 360.591 491.1 359.115L225.688 204.844C222.575 203.029 218.364 202.032 213.832 202.032Z" fill="#373B42"/>
<path d="M178.799 233.883C176.749 235.082 124.542 265.42 122.122 266.827C118.25 269.075 111.934 269.075 108.051 266.838L100.983 262.747C103.406 261.34 168.939 223.259 171.698 221.654L178.766 225.734C182.649 227.982 182.671 231.636 178.799 233.883Z" fill="#373B42"/>
<path d="M115.075 268.939C112.453 268.939 109.832 268.363 107.83 267.213L100.763 263.122C100.63 263.044 100.548 262.903 100.548 262.747C100.548 262.594 100.63 262.45 100.763 262.373L171.478 221.28C171.613 221.202 171.777 221.202 171.912 221.28L178.98 225.36C181.005 226.53 182.118 228.117 182.12 229.821C182.122 231.517 181.019 233.092 179.015 234.256C177.829 234.949 159.849 245.401 125.573 265.32L122.338 267.202C120.336 268.361 117.706 268.939 115.075 268.939ZM101.84 262.745L108.262 266.464C112.032 268.631 118.149 268.629 121.901 266.453L125.137 264.571C159.413 244.652 177.393 234.203 178.578 233.509C180.307 232.507 181.256 231.197 181.256 229.821C181.256 228.436 180.292 227.117 178.547 226.107L171.697 222.153L101.84 262.745Z" fill="#373B42"/>
<path d="M126.125 258.186C124.516 258.186 123.011 257.829 121.892 257.182C120.884 256.599 120.327 255.87 120.325 255.128C120.325 254.396 120.866 253.678 121.848 253.106L165.766 227.58C166.881 226.933 168.386 226.576 170.002 226.576C171.622 226.576 173.133 226.935 174.261 227.587C175.258 228.163 175.808 228.885 175.808 229.623C175.81 230.359 175.265 231.08 174.277 231.656L130.36 257.182C129.243 257.827 127.741 258.186 126.125 258.186Z" fill="white"/>
<path d="M114.738 264.804C113.129 264.804 111.626 264.448 110.505 263.801C109.497 263.22 108.943 262.489 108.94 261.748C108.938 261.015 109.483 260.297 110.47 259.723C111.584 259.076 113.089 258.717 114.705 258.717C116.325 258.717 117.836 259.076 118.964 259.727C119.959 260.303 120.509 261.026 120.511 261.764C120.513 262.5 119.968 263.22 118.98 263.796C117.861 264.445 116.354 264.804 114.738 264.804Z" fill="white"/>
<path d="M114.732 263.57C113.775 263.57 112.882 263.357 112.217 262.974C111.616 262.628 111.288 262.194 111.286 261.753C111.286 261.318 111.607 260.888 112.195 260.547C112.857 260.162 113.753 259.949 114.712 259.949C115.674 259.949 116.574 260.162 117.246 260.549C117.837 260.891 118.163 261.321 118.165 261.759C118.165 262.196 117.844 262.626 117.254 262.967C116.587 263.357 115.692 263.57 114.732 263.57Z" fill="#FA5A2A"/>
<path d="M366.904 459.178C368.435 458.293 369.672 459.022 369.677 460.78C369.681 462.562 368.453 464.689 366.922 465.574C365.35 466.48 364.114 465.775 364.109 463.993C364.105 462.236 365.333 460.084 366.904 459.178Z" fill="#373B42"/>
<path d="M378.361 452.561C379.892 451.677 381.129 452.406 381.134 454.164C381.138 455.946 379.91 458.073 378.379 458.957C376.808 459.864 375.571 459.159 375.566 457.377C375.562 455.62 376.79 453.468 378.361 452.561Z" fill="#373B42"/>
<path d="M389.812 445.946C391.344 445.062 392.58 445.791 392.585 447.549C392.589 449.331 391.361 451.458 389.83 452.342C388.259 453.249 387.022 452.544 387.018 450.762C387.013 449.005 388.241 446.853 389.812 445.946Z" fill="#373B42"/>
<path d="M461.632 404.476C463.163 403.591 464.4 404.321 464.404 406.078C464.409 407.86 463.181 409.987 461.649 410.872C460.078 411.778 458.841 411.073 458.837 409.292C458.832 407.534 460.06 405.382 461.632 404.476Z" fill="#373B42"/>
<path d="M473.09 397.861C474.621 396.977 475.858 397.706 475.862 399.463C475.866 401.245 474.639 403.372 473.107 404.257C471.536 405.163 470.299 404.458 470.295 402.677C470.291 400.919 471.518 398.767 473.09 397.861Z" fill="#373B42"/>
<path d="M440.894 422.922C442.461 422.018 443.731 419.817 443.726 418.017C443.722 416.216 442.443 415.489 440.876 416.393L410.532 433.917C408.965 434.821 407.7 437.017 407.704 438.819C407.709 440.621 408.983 441.35 410.55 440.446L440.894 422.922Z" fill="#373B42"/>
<path d="M309.535 475.006C309.298 475.006 309.103 474.814 309.103 474.574V442.26C309.103 442.02 309.298 441.828 309.535 441.828C309.772 441.828 309.967 442.02 309.967 442.26V474.574C309.967 474.814 309.774 475.006 309.535 475.006Z" fill="#373B42"/>
<path d="M76.9263 339.8C76.6892 339.8 76.4941 339.607 76.4941 339.368V307.055C76.4941 306.816 76.6892 306.623 76.9263 306.623C77.1634 306.623 77.3585 306.816 77.3585 307.055V339.368C77.3585 339.607 77.1656 339.8 76.9263 339.8Z" fill="#373B42"/>
<path d="M246.831 416.706C249.399 418.188 251.472 421.781 251.465 424.733C251.456 427.685 249.371 428.875 246.802 427.39L196.917 398.577C194.349 397.094 192.277 393.502 192.283 390.55C192.292 387.598 194.378 386.408 196.946 387.893L246.831 416.706Z" fill="#F0F2F5"/>
<path d="M246.768 419.659C245.653 419.017 244.753 419.546 244.749 420.827C244.745 422.124 245.64 423.673 246.755 424.318C247.898 424.978 248.798 424.464 248.803 423.168C248.805 421.884 247.912 420.32 246.768 419.659Z" fill="#373B42"/>
<g opacity="0.1">
<path d="M357.622 210.28C356.106 211.156 356.097 212.574 357.604 213.447L483.419 288.156C484.921 289.029 487.372 289.031 488.888 288.156L495.982 284.06C497.498 283.185 497.503 281.767 496 280.893L370.186 206.185C368.679 205.309 366.232 205.309 364.716 206.185L357.622 210.28Z" fill="black"/>
</g>
<path d="M358.192 62.1116C359.728 61.2096 361.856 61.3426 364.205 62.6878L480.29 129.717C481.369 130.338 482.389 131.164 483.333 132.139C485.711 134.577 487.573 137.93 488.326 141.195C488.577 142.243 488.71 143.294 488.71 144.298L488.444 275.147C488.444 277.822 487.484 279.684 485.977 280.57L495.418 275.103C496.925 274.216 497.871 272.339 497.885 269.667L498.151 138.804C498.151 137.813 498.033 136.78 497.781 135.73C497.027 132.465 495.181 129.125 492.787 126.674C491.857 125.699 490.808 124.857 489.729 124.236L373.644 57.2226C371.295 55.8641 369.167 55.7444 367.631 56.6176L358.192 62.1116Z" fill="#DBDEE4"/>
<path d="M483.993 133.068C486.322 135.457 488.146 138.741 488.884 141.939L498.148 136.585C497.41 133.387 495.602 130.116 493.257 127.713L483.993 133.068Z" fill="#F0F2F5"/>
<path d="M485.977 281C485.828 281 485.684 280.922 485.604 280.785C485.485 280.579 485.553 280.315 485.757 280.195C487.211 279.34 488.011 277.547 488.011 275.145L488.277 144.295C488.277 143.335 488.153 142.325 487.905 141.294C487.178 138.136 485.352 134.827 483.022 132.438C482.069 131.456 481.077 130.665 480.07 130.087L363.99 63.0598C361.851 61.8386 359.876 61.6281 358.427 62.4725L358.414 62.4791C358.414 62.4791 358.411 62.4791 358.409 62.4813C358.201 62.5988 357.939 62.5301 357.818 62.3262C357.698 62.1201 357.767 61.8564 357.973 61.7345C357.982 61.73 357.99 61.7234 357.997 61.7189L367.414 56.2383C369.178 55.241 371.465 55.4559 373.861 56.8433L489.946 123.857C491.045 124.489 492.135 125.36 493.1 126.372C495.568 128.899 497.428 132.274 498.201 135.63C498.454 136.682 498.582 137.748 498.582 138.799L498.317 269.664C498.301 272.403 497.35 274.464 495.637 275.473L486.192 280.94C486.125 280.982 486.052 281 485.977 281ZM360.767 61.1095C361.906 61.1782 363.143 61.5815 364.42 62.3107L480.505 129.34C481.577 129.958 482.635 130.798 483.643 131.835C486.076 134.333 487.985 137.795 488.747 141.097C489.011 142.192 489.144 143.269 489.144 144.297L488.878 275.147C488.878 276.576 488.614 277.824 488.113 278.832L495.205 274.728C496.641 273.881 497.443 272.082 497.457 269.662L497.723 138.799C497.723 137.817 497.603 136.818 497.366 135.827C496.637 132.664 494.813 129.358 492.483 126.973C491.57 126.016 490.549 125.198 489.518 124.606L373.433 57.5924C371.308 56.3646 369.326 56.1518 367.848 56.9873L360.767 61.1095Z" fill="#373B42"/>
<path d="M355.72 67.5188C355.736 62.1622 359.541 60.0059 364.202 62.6986L480.283 129.715C484.954 132.412 488.724 138.941 488.709 144.297L488.662 161.054L355.674 84.2778L355.72 67.5188Z" fill="#373B42"/>
<path d="M488.663 161.484C488.59 161.484 488.515 161.464 488.448 161.426L355.46 84.6478C355.327 84.5703 355.245 84.4284 355.245 84.2733L355.292 67.5165C355.301 64.7773 356.258 62.7206 357.987 61.7278C359.731 60.7216 362.018 60.9366 364.42 62.3239L480.501 129.34C485.281 132.099 489.16 138.81 489.144 144.297L489.098 161.054C489.098 161.209 489.016 161.351 488.883 161.428C488.812 161.466 488.739 161.484 488.663 161.484ZM356.107 84.0273L488.233 160.307L488.28 144.295C488.295 139.082 484.612 132.711 480.069 130.087L363.988 63.073C361.861 61.8452 359.881 61.6347 358.417 62.4768C356.965 63.3124 356.163 65.1031 356.156 67.5209L356.107 84.0273Z" fill="#373B42"/>
<path d="M488.671 161.052L488.445 275.151C488.43 280.521 484.636 282.682 479.964 279.985L363.883 212.969C359.222 210.278 355.442 203.743 355.457 198.373L355.683 84.2734L488.671 161.052Z" fill="white"/>
<g clip-path="url(#clip0_136_2718)">
<path d="M421.075 171.014C421.025 171.49 420.829 171.872 420.52 172.096C420.211 172.32 419.81 172.372 419.383 172.243C418.956 172.113 418.531 171.811 418.18 171.387C417.829 170.963 417.574 170.444 417.458 169.917C417.343 169.391 417.373 168.891 417.545 168.502C417.717 168.112 418.019 167.858 418.401 167.782C418.782 167.707 419.219 167.814 419.637 168.086C420.055 168.359 420.428 168.779 420.692 169.276C420.843 169.557 420.955 169.855 421.021 170.154C421.086 170.452 421.105 170.745 421.075 171.014Z" fill="#FA5A2A"/>
<path d="M430.249 175.891C430.199 176.367 430.003 176.75 429.694 176.974C429.385 177.198 428.983 177.249 428.557 177.12C428.13 176.991 427.705 176.688 427.354 176.264C427.003 175.84 426.748 175.321 426.632 174.795C426.516 174.268 426.547 173.768 426.719 173.379C426.891 172.989 427.193 172.735 427.574 172.66C427.956 172.584 428.393 172.691 428.811 172.964C429.229 173.236 429.602 173.656 429.866 174.153C430.017 174.434 430.129 174.733 430.194 175.031C430.26 175.33 430.279 175.622 430.249 175.891Z" fill="#FA5A2A"/>
<path d="M440.774 160.631L438.133 153.812L434.968 152.13L438.288 160.7C438.449 161.112 438.502 161.535 438.439 161.899C438.377 162.263 438.202 162.546 437.944 162.701C437.674 162.869 437.327 162.881 436.969 162.735L412.56 149.768L410.324 143.961L406.982 142.184L415.557 164.456L429.483 171.861C432.828 173.64 435.236 170.475 433.65 166.384L432.746 164.055L436.606 166.107C439.951 167.886 442.36 164.72 440.774 160.631ZM429.846 168.494C429.817 168.478 417.15 161.754 417.15 161.754L414.286 154.288L429.605 162.433L431.162 166.457C431.283 166.77 431.343 167.09 431.337 167.388C431.33 167.685 431.257 167.949 431.124 168.154C430.992 168.36 430.804 168.499 430.58 168.558C430.356 168.617 430.103 168.595 429.846 168.494Z" fill="#FA5A2A"/>
<path d="M428.114 152.095L430.361 157.904L427.198 156.222L426.095 153.374C425.741 152.46 425.231 151.596 424.609 150.855C423.987 150.115 423.272 149.521 422.524 149.123L406.335 140.515L406.31 140.449L404.578 135.978C411.301 139.553 431.921 150.511 433.604 151.412L435.368 155.952L428.114 152.095Z" fill="#FA5A2A"/>
<path d="M407.325 136.109L403.981 134.332L403.166 132.224C401.765 128.353 403.887 127.235 403.887 127.235L407.325 136.109Z" fill="#FA5A2A"/>
</g>
<path d="M483.759 281.583C482.518 281.583 481.153 281.173 479.745 280.359L363.665 213.343C358.884 210.584 355.006 203.869 355.022 198.373L355.248 84.2734C355.248 84.1183 355.33 83.9765 355.463 83.8989C355.598 83.8235 355.76 83.8213 355.895 83.8989L488.883 160.677C489.016 160.755 489.098 160.897 489.098 161.052L488.872 275.151C488.863 277.899 487.906 279.961 486.177 280.958C485.454 281.377 484.639 281.583 483.759 281.583ZM356.11 85.0225L355.886 198.375C355.87 203.594 359.554 209.973 364.097 212.597L480.178 279.613C482.305 280.84 484.282 281.055 485.749 280.211C487.203 279.375 488.005 277.578 488.012 275.151L488.238 161.3L356.11 85.0225Z" fill="#373B42"/>
<path d="M396.437 90.1888C394.467 89.0519 392.885 89.9539 392.878 92.2166C392.871 94.4594 394.445 97.2053 396.415 98.3422C398.383 99.4792 399.968 98.5572 399.974 96.3144C399.979 94.0494 398.405 91.3257 396.437 90.1888Z" fill="white"/>
<path d="M381.622 81.6341C379.669 80.5061 378.069 81.3992 378.063 83.662C378.056 85.9048 379.647 88.6595 381.6 89.7876C383.57 90.9245 385.152 90.0025 385.159 87.7597C385.165 85.497 383.592 82.771 381.622 81.6341Z" fill="white"/>
<path d="M366.804 73.073C364.847 71.9428 363.261 72.847 363.254 75.1164C363.247 77.3658 364.825 80.1162 366.782 81.2464C368.757 82.3856 370.344 81.4614 370.35 79.212C370.357 76.9448 368.779 74.2122 366.804 73.073Z" fill="white"/>
<path d="M381.559 160.367C380.006 159.469 378.742 160.196 378.738 161.974L378.7 175.386C378.696 177.173 379.948 179.342 381.504 180.24L457.806 224.289C459.359 225.187 460.62 224.469 460.627 222.682L460.665 209.27C460.669 207.493 459.417 205.314 457.861 204.416L381.559 160.367Z" fill="white"/>
<path d="M459.07 225.11C458.607 225.11 458.104 224.961 457.59 224.664L381.29 180.615C379.592 179.635 378.265 177.337 378.272 175.387L378.311 161.974C378.316 160.955 378.684 160.181 379.355 159.796C380.029 159.41 380.891 159.479 381.78 159.995L458.082 204.042C459.779 205.022 461.107 207.32 461.1 209.27L461.06 222.683C461.056 223.704 460.688 224.48 460.019 224.864C459.733 225.028 459.411 225.11 459.07 225.11ZM380.304 160.414C380.109 160.414 379.934 160.458 379.783 160.545C379.391 160.771 379.176 161.278 379.174 161.976L379.134 175.389C379.129 177.033 380.29 179.041 381.72 179.868L458.02 223.917C458.636 224.272 459.19 224.345 459.587 224.114C459.977 223.891 460.192 223.381 460.194 222.681L460.234 209.268C460.238 207.652 459.055 205.602 457.647 204.789L381.345 160.742C380.966 160.525 380.612 160.414 380.304 160.414Z" fill="#373B42"/>
<path d="M446.784 201.484C446.598 201.378 446.445 201.464 446.445 201.677L446.434 205.535L443.533 201.929C443.48 201.861 443.42 201.81 443.362 201.777C443.245 201.71 443.132 201.714 443.072 201.803L442.277 202.913C442.188 203.049 442.243 203.312 442.405 203.516L445.306 207.122L442.394 207.375C442.232 207.392 442.175 207.592 442.263 207.829L443.05 209.852C443.11 210.01 443.221 210.145 443.338 210.214C443.396 210.247 443.456 210.265 443.509 210.258L446.421 210.005L446.41 213.864C446.41 214.077 446.563 214.342 446.749 214.449L448.322 215.357C448.509 215.464 448.661 215.377 448.661 215.165L448.673 211.306L451.574 214.912C451.627 214.981 451.687 215.032 451.742 215.065C451.857 215.131 451.968 215.125 452.032 215.038L452.828 213.928C452.917 213.793 452.861 213.529 452.699 213.325L449.798 209.719L452.71 209.467C452.872 209.449 452.93 209.25 452.841 209.012L452.054 206.989C451.99 206.827 451.879 206.694 451.764 206.628C451.707 206.595 451.649 206.579 451.593 206.584L448.681 206.836L448.692 202.978C448.692 202.765 448.54 202.499 448.356 202.393L446.784 201.484Z" fill="#FA5A2A"/>
<path d="M432.848 193.437C432.662 193.331 432.515 193.421 432.515 193.636L432.504 197.495L429.597 193.882C429.543 193.814 429.483 193.763 429.428 193.729C429.313 193.663 429.202 193.67 429.138 193.756L428.351 194.871C428.254 194.999 428.309 195.265 428.471 195.469L431.372 199.075L428.46 199.328C428.298 199.345 428.24 199.545 428.338 199.786L429.116 201.805C429.18 201.967 429.291 202.1 429.406 202.167C429.464 202.2 429.521 202.215 429.577 202.211L432.495 201.965L432.484 205.823C432.484 206.036 432.628 206.298 432.814 206.404L434.388 207.313C434.574 207.419 434.727 207.333 434.727 207.12L434.738 203.261L437.639 206.867C437.692 206.936 437.752 206.987 437.81 207.02C437.927 207.087 438.04 207.082 438.1 206.993L438.896 205.883C438.984 205.748 438.938 205.489 438.776 205.285L435.868 201.672L438.787 201.426C438.949 201.409 438.998 201.205 438.909 200.968L438.122 198.944C438.062 198.787 437.952 198.652 437.834 198.583C437.777 198.55 437.717 198.532 437.664 198.539L434.751 198.791L434.763 194.933C434.763 194.72 434.61 194.454 434.426 194.348L432.848 193.437Z" fill="#FA5A2A"/>
<path d="M418.915 185.394C418.722 185.283 418.576 185.374 418.576 185.587L418.565 189.445L415.657 185.833C415.606 185.766 415.549 185.715 415.491 185.682C415.376 185.616 415.263 185.62 415.205 185.711L414.41 186.821C414.321 186.956 414.367 187.216 414.529 187.42L417.437 191.032L414.518 191.278C414.356 191.296 414.308 191.5 414.396 191.737L415.183 193.76C415.243 193.917 415.354 194.053 415.469 194.119C415.527 194.152 415.584 194.168 415.635 194.161L418.554 193.915L418.543 197.774C418.543 197.986 418.687 198.248 418.88 198.359L420.453 199.267C420.639 199.374 420.786 199.283 420.786 199.068L420.797 195.21L423.704 198.822C423.758 198.891 423.817 198.942 423.873 198.975C423.988 199.041 424.099 199.035 424.163 198.948L424.95 197.834C425.047 197.705 424.992 197.439 424.83 197.235L421.923 193.623L424.841 193.377C425.003 193.359 425.061 193.16 424.963 192.918L424.185 190.899C424.121 190.737 424.01 190.604 423.895 190.538C423.837 190.504 423.78 190.489 423.724 190.493L420.806 190.739L420.817 186.881C420.817 186.668 420.673 186.407 420.486 186.3L418.915 185.394Z" fill="#FA5A2A"/>
<path d="M404.971 177.346C404.785 177.239 404.632 177.326 404.63 177.538L404.619 181.397L401.718 177.791C401.665 177.722 401.605 177.671 401.547 177.638C401.43 177.572 401.317 177.576 401.257 177.665L400.461 178.775C400.372 178.91 400.428 179.174 400.59 179.378L403.491 182.984L400.579 183.236C400.417 183.254 400.359 183.453 400.448 183.691L401.235 185.714C401.294 185.871 401.405 186.007 401.523 186.075C401.58 186.108 401.64 186.126 401.693 186.12L404.605 185.867L404.594 189.725C404.594 189.938 404.747 190.204 404.933 190.31L406.507 191.219C406.693 191.325 406.846 191.239 406.846 191.026L406.857 187.168L409.758 190.774C409.811 190.842 409.871 190.893 409.927 190.927C410.042 190.993 410.153 190.986 410.217 190.9L411.012 189.79C411.101 189.654 411.046 189.391 410.884 189.187L407.983 185.581L410.895 185.328C411.057 185.311 411.114 185.111 411.026 184.874L410.239 182.851C410.175 182.689 410.064 182.556 409.949 182.489C409.891 182.456 409.833 182.441 409.778 182.445L406.866 182.698L406.877 178.839C406.877 178.627 406.724 178.361 406.54 178.254L404.971 177.346Z" fill="#FA5A2A"/>
<path d="M391.032 169.298C390.846 169.192 390.7 169.283 390.7 169.498L390.689 173.356L387.781 169.744C387.728 169.675 387.668 169.624 387.613 169.591C387.497 169.524 387.387 169.531 387.322 169.617L386.536 170.732C386.438 170.861 386.493 171.127 386.655 171.331L389.556 174.936L386.644 175.189C386.482 175.207 386.425 175.406 386.522 175.648L387.3 177.667C387.364 177.828 387.475 177.961 387.591 178.028C387.648 178.061 387.706 178.077 387.761 178.072L390.68 177.826L390.669 181.685C390.669 181.897 390.813 182.159 390.999 182.265L392.573 183.174C392.765 183.285 392.912 183.194 392.912 182.981L392.923 179.123L395.824 182.728C395.877 182.797 395.937 182.848 395.994 182.881C396.112 182.948 396.225 182.943 396.285 182.855L397.08 181.744C397.169 181.609 397.122 181.35 396.961 181.146L394.053 177.534L396.972 177.288C397.134 177.27 397.182 177.066 397.094 176.829L396.307 174.806C396.247 174.648 396.136 174.513 396.019 174.444C395.961 174.411 395.901 174.393 395.848 174.4L392.936 174.653L392.947 170.794C392.947 170.581 392.803 170.32 392.61 170.209L391.032 169.298Z" fill="#FA5A2A"/>
<path d="M388.852 195.864C387.766 195.237 386.875 195.744 386.872 196.992L386.828 212.297C386.824 213.547 387.708 215.076 388.796 215.703L439.86 245.186C440.946 245.813 441.837 245.305 441.839 244.057L441.883 228.752C441.888 227.502 441.003 225.973 439.915 225.346L388.852 195.864Z" fill="#FA5A2A"/>
<path d="M370.584 66.8013C370.436 66.8013 370.292 66.7238 370.212 66.5863C370.092 66.3802 370.161 66.1165 370.369 65.9946L379.458 60.7245C379.66 60.6048 379.928 60.6735 380.048 60.8818C380.167 61.0879 380.099 61.3517 379.89 61.4735L370.802 66.7437C370.733 66.7836 370.66 66.8013 370.584 66.8013Z" fill="#373B42"/>
<path d="M121.864 298.01L121.904 312.632C121.904 314.223 122.952 315.817 125.049 317.04L150.092 331.508C150.617 331.818 151.18 332.071 151.761 332.303C155.198 333.624 159.624 333.682 163.157 332.498C163.952 332.226 164.71 331.895 165.388 331.508L275.293 268.046C277.429 266.803 278.495 265.192 278.495 263.581L278.455 248.938C278.455 250.549 277.387 252.181 275.253 253.386L165.331 316.887C164.67 317.275 163.932 317.605 163.157 317.838C159.624 319.061 155.196 319.004 151.761 317.683C151.158 317.47 150.578 317.198 150.052 316.887L124.989 302.42C122.913 301.192 121.864 299.601 121.864 298.01Z" fill="#BEC4CD"/>
<path d="M125.048 293.553C120.811 295.999 120.789 299.969 124.997 302.415L150.047 316.878C154.258 319.325 161.106 319.325 165.343 316.878L275.256 253.404C279.494 250.957 279.516 246.988 275.305 244.541L250.255 230.078C246.045 227.631 239.196 227.631 234.959 230.078L125.048 293.553Z" fill="white"/>
<path d="M157.688 319.136C154.841 319.136 151.995 318.509 149.834 317.253L124.787 302.79C122.619 301.529 121.425 299.829 121.427 298C121.431 296.161 122.639 294.448 124.835 293.18L234.751 229.706C239.101 227.193 246.157 227.193 250.479 229.706L275.529 244.169C277.696 245.43 278.889 247.13 278.886 248.958C278.882 250.797 277.674 252.511 275.478 253.778L165.563 317.25C163.389 318.507 160.536 319.136 157.688 319.136ZM125.265 293.925C123.348 295.033 122.291 296.48 122.289 297.998C122.287 299.505 123.326 300.941 125.219 302.041L150.266 316.504C154.353 318.879 161.024 318.877 165.133 316.504L275.046 253.029C276.963 251.921 278.02 250.476 278.022 248.956C278.024 247.449 276.985 246.013 275.094 244.913L250.045 230.45C245.96 228.077 239.292 228.077 235.181 230.45L125.265 293.925Z" fill="#373B42"/>
<path d="M151.761 317.681V332.304C155.198 333.625 159.624 333.682 163.156 332.499V317.836C159.624 319.06 155.198 319 151.761 317.681Z" fill="#F0F2F5"/>
<path d="M157.719 333.779C155.587 333.779 153.464 333.42 151.605 332.704C150.88 332.414 150.348 332.159 149.869 331.878L124.831 317.413C122.663 316.147 121.469 314.449 121.469 312.63L121.429 298.034C121.429 298.025 121.429 298.016 121.429 298.007C121.429 297.768 121.622 297.575 121.861 297.575C122.098 297.575 122.293 297.768 122.293 298.007V298.027C122.302 299.517 123.335 300.942 125.205 302.045L150.266 316.511C150.771 316.81 151.334 317.073 151.902 317.273C155.233 318.554 159.59 318.614 163.011 317.428C163.752 317.204 164.452 316.898 165.108 316.513L275.034 253.012C276.934 251.939 278.022 250.454 278.022 248.938C278.022 248.699 278.215 248.506 278.454 248.506C278.691 248.506 278.886 248.699 278.886 248.938L278.926 263.581C278.926 265.42 277.714 267.138 275.509 268.421L165.602 331.884C164.924 332.274 164.148 332.618 163.293 332.911C161.553 333.489 159.632 333.779 157.719 333.779ZM122.302 300.616L122.333 312.63C122.333 314.13 123.375 315.562 125.265 316.666L150.308 331.131C150.749 331.392 151.246 331.63 151.922 331.9C155.217 333.165 159.572 333.241 163.02 332.086C163.818 331.813 164.545 331.49 165.175 331.131L275.076 267.67C277.002 266.548 278.064 265.094 278.064 263.579L278.033 251.522C277.45 252.367 276.579 253.131 275.469 253.761L165.549 317.257C164.838 317.676 164.073 318.011 163.282 318.248C159.636 319.509 155.157 319.447 151.607 318.082C150.989 317.862 150.388 317.583 149.834 317.253L124.773 302.79C123.7 302.158 122.867 301.423 122.302 300.616Z" fill="#373B42"/>
<path d="M141.242 191.097L141.572 290.242C141.581 293.025 143.403 295.8 147.053 297.912C154.402 302.187 166.345 302.187 173.741 297.921L241.614 258.714C245.34 256.571 247.19 253.749 247.19 250.939L246.851 151.804C246.851 154.625 244.992 157.428 241.286 159.569L173.411 198.77C166.015 203.045 154.063 203.034 146.723 198.77C143.073 196.647 141.251 193.872 141.242 191.097Z" fill="#F0F2F5"/>
<path d="M160.388 301.965C155.395 301.965 150.406 300.864 146.619 298.661C142.818 296.46 140.719 293.473 140.708 290.246L140.38 191.102L142.109 191.097C142.117 193.675 143.91 196.135 147.157 198.025C154.262 202.152 165.842 202.149 172.98 198.023L240.854 158.827C244.165 156.914 245.987 154.421 245.987 151.81L247.715 151.806V151.81V151.813L248.057 250.942C248.057 254.215 245.923 257.242 242.049 259.469L174.177 298.674C170.363 300.868 165.372 301.965 160.388 301.965ZM142.124 195.975L142.437 290.239C142.448 292.826 144.238 295.286 147.487 297.165C154.579 301.289 166.163 301.294 173.311 297.174L241.184 257.967C244.502 256.061 246.328 253.566 246.328 250.939L246.005 156.668C244.994 158.022 243.551 159.259 241.718 160.318L173.842 199.519C166.228 203.92 153.863 203.92 146.288 199.517C144.515 198.486 143.115 197.287 142.124 195.975Z" fill="#DBDEE4"/>
<path d="M146.81 183.312C139.417 187.58 139.379 194.499 146.724 198.767C154.068 203.036 166.016 203.04 173.407 198.772L241.287 159.572C248.681 155.303 248.712 148.38 241.367 144.111C234.023 139.843 222.082 139.843 214.691 144.111L146.81 183.312Z" fill="white"/>
<path d="M160.052 202.393C155.139 202.393 150.234 201.31 146.505 199.142C142.828 197.003 140.802 194.136 140.807 191.066C140.811 187.977 142.866 185.089 146.591 182.939L214.474 143.739C221.971 139.408 234.134 139.411 241.584 143.739C245.266 145.88 247.289 148.75 247.285 151.821C247.28 154.911 245.228 157.796 241.502 159.946L173.62 199.146C169.874 201.312 164.961 202.393 160.052 202.393ZM147.025 183.686C143.577 185.679 141.675 188.3 141.673 191.068C141.669 193.816 143.539 196.418 146.941 198.395C154.157 202.59 165.932 202.59 173.19 198.4L241.073 159.199C244.519 157.209 246.418 154.587 246.422 151.819C246.427 149.069 244.554 146.465 241.15 144.486C233.941 140.295 222.168 140.295 214.908 144.486L147.025 183.686Z" fill="#373B42"/>
<path d="M233.12 156.941C232.995 157.042 232.854 157.124 232.71 157.206C228.379 159.691 221.398 159.711 217.087 157.206C216.943 157.124 216.822 157.042 216.697 156.941C212.921 154.538 212.941 150.842 216.678 148.439C216.822 148.337 216.966 148.233 217.13 148.151C221.46 145.647 228.461 145.625 232.772 148.131C232.896 148.193 232.998 148.275 233.1 148.337C236.936 150.762 236.936 154.518 233.12 156.941Z" fill="#373B42"/>
<path d="M224.878 159.498C221.97 159.498 219.069 158.86 216.868 157.581C216.704 157.488 216.562 157.393 216.418 157.273C214.515 156.067 213.44 154.432 213.438 152.701C213.433 150.968 214.499 149.326 216.443 148.076C216.587 147.971 216.751 147.858 216.935 147.765C221.365 145.201 228.576 145.195 232.987 147.756C233.053 147.79 233.14 147.845 233.217 147.898L233.317 147.963C235.314 149.224 236.409 150.881 236.411 152.639C236.413 154.385 235.334 156.038 233.372 157.291C233.235 157.401 233.08 157.492 232.922 157.583C230.697 158.86 227.783 159.498 224.878 159.498ZM224.982 146.695C222.22 146.695 219.455 147.307 217.345 148.528C217.178 148.612 217.052 148.703 216.928 148.791C215.224 149.888 214.297 151.271 214.302 152.699C214.306 154.124 215.239 155.5 216.928 156.575C217.077 156.694 217.181 156.763 217.3 156.83C221.462 159.25 228.277 159.25 232.495 156.83C232.617 156.759 232.739 156.692 232.843 156.606C232.856 156.595 232.871 156.584 232.889 156.573C234.605 155.482 235.551 154.086 235.549 152.637C235.546 151.187 234.596 149.789 232.869 148.698L232.739 148.614C232.688 148.581 232.637 148.545 232.579 148.514C230.482 147.302 227.734 146.695 224.982 146.695Z" fill="#373B42"/>
<path d="M171.82 192.34C171.656 192.464 171.492 192.566 171.306 192.668C166.953 195.172 159.954 195.172 155.644 192.668C155.562 192.626 155.48 192.566 155.398 192.504C151.457 190.082 151.477 186.283 155.378 183.839C155.502 183.757 155.604 183.675 155.726 183.613C160.036 181.106 167.037 181.106 171.348 183.613C171.512 183.695 171.656 183.797 171.8 183.901C175.474 186.303 175.474 189.918 171.82 192.34Z" fill="#373B42"/>
<path d="M163.465 194.968C160.549 194.968 157.641 194.326 155.429 193.042C155.354 193.005 155.252 192.934 155.152 192.858C153.147 191.626 152.025 189.966 152.019 188.198C152.01 186.423 153.124 184.745 155.15 183.473L155.237 183.413C155.336 183.342 155.432 183.278 155.538 183.225C159.937 180.665 167.138 180.665 171.568 183.238C171.727 183.318 171.891 183.431 172.053 183.548C173.937 184.78 174.985 186.403 174.992 188.105C174.996 189.807 173.961 191.436 172.073 192.692C171.898 192.823 171.719 192.934 171.521 193.045C169.294 194.326 166.377 194.968 163.465 194.968ZM163.532 182.163C160.784 182.163 158.038 182.77 155.946 183.987C155.85 184.033 155.793 184.076 155.731 184.12L155.618 184.197C153.843 185.31 152.874 186.726 152.881 188.191C152.885 189.649 153.86 191.05 155.624 192.134C155.724 192.205 155.782 192.251 155.837 192.28C160.041 194.72 166.876 194.72 171.091 192.291C171.264 192.196 171.413 192.103 171.561 191.992C171.568 191.987 171.574 191.981 171.581 191.976C173.226 190.886 174.132 189.51 174.125 188.105C174.121 186.702 173.21 185.337 171.563 184.257C171.424 184.158 171.3 184.067 171.156 183.996C169.05 182.775 166.289 182.163 163.532 182.163Z" fill="#373B42"/>
<path d="M233.118 156.94C232.994 157.042 232.852 157.124 232.708 157.206C228.377 159.69 221.396 159.71 217.086 157.206C216.942 157.124 216.82 157.042 216.696 156.94L216.676 148.439L216.594 117.272C216.574 111.009 214.788 106.41 211.709 104.644C208.569 102.878 203.642 103.658 198.162 106.82C183.792 115.136 171.66 136.101 171.722 152.63L171.804 183.9L171.824 192.34C171.66 192.464 171.496 192.566 171.31 192.668C166.957 195.172 159.958 195.172 155.648 192.668C155.566 192.626 155.484 192.566 155.402 192.504L155.382 183.838L155.3 152.672C155.238 130.25 170.45 103.864 189.95 92.5924C200.748 86.3714 211.361 85.5692 219.818 90.3739C228.295 95.1986 232.976 104.746 233.018 117.232L233.1 148.339L233.118 156.94Z" fill="#F0F2F5"/>
<path d="M163.463 194.968C160.547 194.968 157.639 194.326 155.427 193.043C155.352 193.005 155.25 192.934 155.15 192.859C155.042 192.777 154.966 192.641 154.966 192.506L154.864 152.674C154.802 130.113 170.116 103.559 189.73 92.2205C200.682 85.9109 211.442 85.1242 220.026 90.002C228.638 94.9043 233.405 104.574 233.445 117.233L233.547 156.943C233.547 157.071 233.491 157.193 233.392 157.275C233.25 157.395 233.083 157.49 232.919 157.585C228.467 160.139 221.267 160.139 216.865 157.583C216.701 157.49 216.559 157.395 216.415 157.275C216.318 157.193 216.26 157.071 216.26 156.945L216.158 117.277C216.136 111.18 214.436 106.712 211.489 105.024C208.486 103.335 203.701 104.126 198.371 107.2C184.096 115.462 172.087 136.268 172.146 152.632L172.248 192.342C172.248 192.477 172.184 192.606 172.076 192.688C171.896 192.823 171.714 192.936 171.513 193.049C169.292 194.326 166.375 194.968 163.463 194.968ZM155.831 192.278C155.833 192.28 155.835 192.28 155.837 192.282C160.042 194.722 166.876 194.722 171.092 192.294C171.198 192.236 171.293 192.176 171.389 192.116L171.287 152.63C171.227 135.993 183.431 114.844 197.943 106.446C203.541 103.215 208.639 102.424 211.916 104.268C215.141 106.116 217.003 110.854 217.025 117.27L217.127 156.726C217.18 156.763 217.238 156.796 217.3 156.832C221.462 159.252 228.276 159.252 232.494 156.832C232.558 156.794 232.625 156.759 232.687 156.719L232.585 117.23C232.545 104.895 227.933 95.4894 219.602 90.7489C211.294 86.0284 200.84 86.8151 190.164 92.9651C170.792 104.161 155.669 130.388 155.731 152.67L155.831 192.278Z" fill="#373B42"/>
<path d="M173.411 198.77C166.016 203.045 154.064 203.034 146.724 198.77C143.074 196.647 141.252 193.872 141.243 191.097L141.573 290.242C141.582 293.025 143.404 295.8 147.054 297.912C154.403 302.187 166.346 302.187 173.742 297.921" fill="#373B42"/>
<path d="M160.389 301.965C155.396 301.965 150.407 300.864 146.62 298.661C142.819 296.46 140.72 293.473 140.709 290.246L140.381 191.102L142.11 191.097C142.118 193.675 143.911 196.135 147.158 198.025C154.263 202.152 165.843 202.149 172.981 198.023L173.846 199.519C166.231 203.92 153.867 203.92 146.292 199.517C144.519 198.488 143.118 197.289 142.127 195.977L142.44 290.242C142.451 292.828 144.242 295.288 147.49 297.167C154.582 301.292 166.166 301.296 173.314 297.176L174.178 298.672C170.364 300.868 165.373 301.965 160.389 301.965Z" fill="#DBDEE4"/>
<path d="M160.389 301.54C155.476 301.54 150.567 300.456 146.837 298.286C143.176 296.165 141.153 293.309 141.141 290.244L140.813 191.099C140.813 190.86 141.006 190.667 141.243 190.665H141.246C141.483 190.665 141.678 190.858 141.678 191.095C141.687 193.834 143.555 196.425 146.944 198.395C154.16 202.59 165.939 202.59 173.197 198.395L241.07 159.199C244.519 157.204 246.42 154.58 246.42 151.808C246.42 151.571 246.613 151.376 246.853 151.376C247.09 151.376 247.285 151.569 247.285 151.806L247.626 250.941C247.626 254.051 245.569 256.947 241.835 259.092L173.961 298.297C170.209 300.46 165.296 301.54 160.389 301.54ZM141.689 194.494L142.006 290.241C142.017 292.987 143.885 295.58 147.272 297.542C154.485 301.737 166.262 301.739 173.527 297.55L241.401 258.346C244.856 256.358 246.759 253.729 246.759 250.944L246.431 155.188C245.501 156.974 243.827 158.605 241.503 159.948L173.627 199.144C166.129 203.479 153.962 203.477 146.505 199.144C144.246 197.83 142.611 196.236 141.689 194.494Z" fill="#373B42"/>
<path d="M206.477 209.233C201.065 212.358 196.668 219.977 196.686 226.225C196.699 230.608 198.891 233.172 202.102 233.17L197.492 258.532C197.129 260.582 198.337 261.655 199.994 260.698L213.252 253.041C214.91 252.083 216.108 249.621 215.734 247.999L210.996 228.033C214.198 224.332 216.368 219.248 216.357 214.864C216.339 208.614 211.913 206.092 206.477 209.233Z" fill="#373B42"/>
<path d="M198.839 261.482C198.468 261.482 198.127 261.38 197.837 261.179C197.125 260.68 196.844 259.689 197.063 258.459L201.587 233.585C198.338 233.319 196.263 230.491 196.25 226.229C196.232 219.848 200.725 212.058 206.258 208.863C209.035 207.258 211.67 207.012 213.678 208.167C215.673 209.315 216.777 211.695 216.785 214.869C216.799 219.19 214.764 224.261 211.464 228.153L216.152 247.903C216.575 249.736 215.294 252.363 213.468 253.42L200.21 261.07C199.738 261.345 199.269 261.482 198.839 261.482ZM202.101 232.738C202.229 232.738 202.351 232.796 202.431 232.893C202.513 232.991 202.549 233.121 202.526 233.248L197.917 258.61C197.761 259.481 197.919 260.177 198.336 260.469C198.679 260.711 199.191 260.66 199.778 260.323L213.036 252.668C214.518 251.811 215.646 249.546 215.312 248.096L210.576 228.135C210.545 228 210.58 227.858 210.669 227.754C213.924 223.991 215.937 219.053 215.923 214.869C215.914 212.016 214.966 209.902 213.248 208.914C211.52 207.916 209.191 208.167 206.693 209.607C201.396 212.666 197.099 220.121 197.117 226.225C197.128 230.243 199.038 232.74 202.101 232.74C202.101 232.738 202.101 232.738 202.101 232.738Z" fill="#373B42"/>
<path d="M258.284 312.599C224.866 331.767 224.726 362.834 257.927 382.002C291.128 401.17 345.082 401.17 378.5 382.002C411.919 362.834 412.169 331.747 378.966 312.579C345.765 293.411 291.702 293.431 258.284 312.599Z" fill="white"/>
<g clip-path="url(#clip1_136_2718)">
<path fill-rule="evenodd" clip-rule="evenodd" d="M287.254 359.303C273.57 349.361 275.004 335.725 290.455 328.845C305.907 321.966 329.526 324.448 343.209 334.39C356.893 344.332 355.46 357.968 340.008 364.848C324.556 371.727 300.938 369.245 287.254 359.303Z" stroke="#373B42"/>
<path d="M319.246 338.579C323.905 341.964 323.407 346.61 318.135 348.958C312.863 351.305 304.813 350.464 300.155 347.079C295.496 343.695 295.994 339.048 301.265 336.701C306.537 334.354 314.588 335.195 319.246 338.579Z" fill="#BEC4CD"/>
<path d="M326.488 348.625C332.862 346.238 341.549 347.025 348.08 350.064C347.666 355.002 343.942 359.612 337.034 362.688C330.126 365.763 321.363 366.713 312.834 365.755C309.219 361.419 309.964 356.435 315.569 353.488C319.058 351.653 322.527 350.108 326.488 348.625Z" fill="#FA5A2A"/>
</g>
<path d="M318.129 396.773C296.215 396.773 274.337 391.975 257.709 382.374C241.557 373.048 232.67 360.626 232.688 347.398C232.705 334.09 241.719 321.599 258.065 312.222C291.577 293.001 345.907 292.994 379.177 312.202C395.293 321.508 404.162 333.91 404.143 347.125C404.125 360.46 395.092 372.977 378.709 382.374C361.979 391.973 340.036 396.773 318.129 396.773ZM258.495 312.973C242.428 322.188 233.572 334.415 233.552 347.4C233.534 360.307 242.266 372.461 258.141 381.627C291.156 400.687 345.049 400.687 378.284 381.627C394.387 372.392 403.265 360.139 403.283 347.128C403.3 334.234 394.586 322.098 378.747 312.954C345.714 293.883 291.77 293.894 258.495 312.973Z" fill="#373B42"/>
<path d="M318.148 386.597C300.708 386.597 283.297 382.788 270.064 375.167C257.211 367.765 250.138 357.905 250.152 347.405C250.166 336.841 257.339 326.927 270.348 319.484C297.017 304.227 340.254 304.221 366.73 319.468C379.556 326.854 386.614 336.699 386.598 347.188C386.584 357.773 379.395 367.709 366.358 375.167C353.044 382.786 335.582 386.597 318.148 386.597ZM270.69 320.08C257.904 327.394 250.856 337.1 250.84 347.406C250.826 357.652 257.775 367.299 270.408 374.575C296.682 389.703 339.571 389.703 366.02 374.575C378.834 367.244 385.9 357.518 385.914 347.19C385.928 336.955 378.993 327.322 366.388 320.064C340.1 304.927 297.17 304.935 270.69 320.08Z" fill="#373B42" fill-opacity="0.17"/>
<path d="M372.695 410.431C371.228 411.278 370.485 412.393 370.49 413.507C370.472 414.622 371.203 415.737 372.661 416.584C374.131 417.437 376.063 417.858 377.976 417.858C379.889 417.858 381.828 417.437 383.295 416.59L438.8 384.544C441.734 382.837 441.75 380.085 438.824 378.385C437.366 377.538 435.445 377.111 433.532 377.111C431.608 377.117 429.68 377.532 428.202 378.385L372.695 410.431Z" fill="#BEC4CD"/>
<path d="M398.99 211.942C398.958 211.487 399.03 211.19 399.205 211.052L398.773 210.812C398.396 210.603 398.115 210.557 397.932 210.674C397.747 210.783 397.669 211.04 397.698 211.444L398.095 217.123L396.953 216.49L396.555 210.811C396.5 210.019 396.667 209.507 397.056 209.277C397.452 209.042 398.012 209.126 398.736 209.528L401.065 210.818C401.738 211.191 402.254 211.66 402.613 212.224C402.979 212.783 403.186 213.413 403.235 214.113L403.289 214.884C403.341 215.618 403.195 216.076 402.852 216.259C402.51 216.442 401.988 216.339 401.285 215.95C400.598 215.568 400.063 215.094 399.683 214.526C399.301 213.95 399.087 213.329 399.041 212.663L398.99 211.942ZM401.245 214.614C401.556 214.786 401.787 214.846 401.94 214.793C402.092 214.74 402.157 214.544 402.133 214.207L402.09 213.587C402.068 213.275 401.974 212.992 401.807 212.737C401.647 212.487 401.43 212.285 401.157 212.134L400.88 211.98C400.614 211.833 400.417 211.813 400.289 211.92C400.169 212.024 400.119 212.223 400.139 212.518L400.176 213.049C400.202 213.42 400.298 213.725 400.464 213.963C400.637 214.204 400.898 214.422 401.245 214.614ZM407.254 217.945C407.291 217.966 407.32 218.026 407.342 218.127C407.37 218.232 407.395 218.428 407.415 218.715C407.434 218.985 407.435 219.156 407.419 219.228C407.41 219.304 407.387 219.332 407.35 219.311L407.017 219.127C406.426 218.799 405.965 218.353 405.634 217.789C405.303 217.224 405.112 216.58 405.061 215.854L404.649 209.96L405.791 210.593L406.197 216.399C406.222 216.745 406.295 217.028 406.417 217.25C406.546 217.476 406.737 217.658 406.988 217.798L407.254 217.945ZM410.255 218.879C410.301 219.545 410.164 219.972 409.843 220.158C409.522 220.337 409.069 220.264 408.485 219.94L407.354 219.313C407.28 219.272 407.227 219.033 407.197 218.594C407.164 218.122 407.184 217.906 407.258 217.947L408.389 218.574C408.618 218.701 408.799 218.736 408.93 218.679C409.06 218.614 409.116 218.455 409.099 218.202L408.956 216.165L410.11 216.805L410.255 218.879ZM408.201 214.361L408.114 213.121L409.445 213.859L409.532 215.098L408.201 214.361ZM420.366 225.213C420.602 225.344 420.786 225.381 420.917 225.324C421.055 225.263 421.115 225.11 421.098 224.865L420.955 222.816L422.108 223.456L422.247 225.441C422.287 226.006 422.562 226.43 423.072 226.713L423.449 226.922C423.523 226.963 423.576 227.22 423.609 227.692C423.64 228.13 423.618 228.329 423.544 228.288L423.123 228.054C422.465 227.69 422.013 227.22 421.767 226.646C421.54 226.958 421.105 226.936 420.461 226.579L416.658 224.471C416 224.106 415.487 223.635 415.12 223.059C414.752 222.474 414.543 221.823 414.493 221.107L414.357 219.159L415.499 219.792L415.623 221.563C415.648 221.917 415.74 222.224 415.9 222.483C416.061 222.742 416.3 222.959 416.618 223.135L420.366 225.213ZM419.583 219.965L419.668 221.179L416.652 219.507L416.567 218.293L419.583 219.965ZM424.779 227.659C425.016 227.79 425.199 227.828 425.33 227.77C425.468 227.709 425.528 227.552 425.511 227.299L425.368 225.263L426.521 225.902L426.66 227.888C426.7 228.453 426.975 228.876 427.485 229.159L427.862 229.368C427.936 229.409 427.989 229.662 428.021 230.125C428.053 230.572 428.031 230.775 427.957 230.734L427.536 230.501C426.878 230.136 426.426 229.666 426.18 229.092C425.953 229.404 425.518 229.382 424.874 229.025L423.544 228.288C423.47 228.247 423.418 228.007 423.387 227.569C423.354 227.096 423.374 226.881 423.448 226.922L424.779 227.659ZM424.2 231.265L424.113 230.026L425.444 230.763L425.53 232.003L424.2 231.265ZM430.863 230.302C430.91 230.969 430.773 231.395 430.452 231.582C430.13 231.76 429.677 231.688 429.093 231.364L427.962 230.737C427.888 230.696 427.836 230.456 427.805 230.018C427.772 229.546 427.793 229.33 427.867 229.371L428.998 229.998C429.227 230.125 429.407 230.16 429.538 230.103C429.669 230.037 429.725 229.878 429.707 229.625L429.565 227.589L430.718 228.228L430.863 230.302ZM429.781 223.368L429.864 224.545L428.699 223.899L428.617 222.723L429.781 223.368ZM430.832 225.738L430.917 226.952L427.9 225.28L427.815 224.066L430.832 225.738Z" fill="white"/>
<defs>
<clipPath id="clip0_136_2718">
<rect width="45.1972" height="35.0509" fill="white" transform="matrix(0.882948 0.469472 -0.104528 0.994522 403.444 127)"/>
</clipPath>
<clipPath id="clip1_136_2718">
<rect width="73.5007" height="73.5007" fill="white" transform="matrix(0.913545 -0.406737 0.809017 0.587785 251.927 340.193)"/>
</clipPath>
</defs>
</svg>
