<svg width="20" height="21" viewBox="0 0 20 21" fill="none" xmlns="http://www.w3.org/2000/svg">
<g clip-path="url(#clip0_151_2664)">
<path d="M19.7869 10.2836C19.7869 9.62531 19.7286 9.00031 19.6286 8.39197H10.2119V12.1503H15.6036C15.3619 13.3836 14.6536 14.4253 13.6036 15.1336V17.6336H16.8203C18.7036 15.892 19.7869 13.3253 19.7869 10.2836Z" fill="#4285F4"/>
<path d="M10.2131 20.0591C12.9131 20.0591 15.1714 19.1591 16.8214 17.6341L13.6047 15.1341C12.7047 15.7341 11.5631 16.1007 10.2131 16.1007C7.60476 16.1007 5.39642 14.3425 4.60476 11.9674H1.28809V14.5425C2.92976 17.8091 6.30476 20.0591 10.2131 20.0591Z" fill="#34A853"/>
<path d="M4.60456 11.9675C4.39623 11.3675 4.28789 10.7258 4.28789 10.0591C4.28789 9.39248 4.40456 8.75081 4.60456 8.15081V5.57581H1.28789C0.604557 6.92581 0.212891 8.44248 0.212891 10.0591C0.212891 11.6758 0.604557 13.1925 1.28789 14.5425L4.60456 11.9675Z" fill="#FBBC05"/>
<path d="M10.2131 4.01718C11.6881 4.01718 13.0047 4.52551 14.0464 5.51718L16.8964 2.66718C15.1714 1.05051 12.9131 0.0588379 10.2131 0.0588379C6.30476 0.0588379 2.92976 2.30884 1.28809 5.57551L4.60476 8.15051C5.39642 5.77551 7.60476 4.01718 10.2131 4.01718Z" fill="#EA4335"/>
</g>
<defs>
<clipPath id="clip0_151_2664">
<rect width="20" height="20" fill="white" transform="translate(0 0.0588379)"/>
</clipPath>
</defs>
</svg>
