<svg width="21" height="23" viewBox="0 0 21 23" fill="none" xmlns="http://www.w3.org/2000/svg">
<path d="M14.7 6.55884C16.3802 6.55884 17.2202 6.55884 17.862 6.88582C18.4265 7.17344 18.8854 7.63238 19.173 8.19687C19.5 8.8386 19.5 9.67868 19.5 11.3588V16.7588C19.5 18.439 19.5 19.2791 19.173 19.9208C18.8854 20.4853 18.4265 20.9442 17.862 21.2319C17.2202 21.5588 16.3802 21.5588 14.7 21.5588H6.3C4.61984 21.5588 3.77976 21.5588 3.13803 21.2319C2.57354 20.9442 2.1146 20.4853 1.82698 19.9208C1.5 19.2791 1.5 18.439 1.5 16.7588V11.3588C1.5 9.67868 1.5 8.8386 1.82698 8.19687C2.1146 7.63238 2.57354 7.17344 3.13803 6.88582C3.77976 6.55884 4.61984 6.55884 6.3 6.55884M10.5 15.0588C11.6046 15.0588 12.5 14.1634 12.5 13.0588C12.5 11.9543 11.6046 11.0588 10.5 11.0588C9.39543 11.0588 8.5 11.9543 8.5 13.0588C8.5 14.1634 9.39543 15.0588 10.5 15.0588ZM10.5 15.0588V17.0588M14.5 5.55884V6.55884H6.5V5.55884C6.5 3.3497 8.29086 1.55884 10.5 1.55884C12.7091 1.55884 14.5 3.3497 14.5 5.55884Z" stroke="#FA5A2A" stroke-width="1.5" stroke-linecap="round"/>
</svg>
