<svg width="355" height="99" viewBox="0 0 355 99" fill="none" xmlns="http://www.w3.org/2000/svg">
<g clip-path="url(#clip0_177_2572)">
<path d="M180.961 64.0862C180.96 65.0095 180.637 65.9039 180.047 66.617C179.457 67.3301 178.637 67.8178 177.726 67.9969C176.815 68.176 175.869 68.0354 175.051 67.5992C174.232 67.1629 173.591 66.458 173.237 65.6045C172.883 64.751 172.837 63.8018 173.108 62.9186C173.379 62.0354 173.95 61.273 174.722 60.7612C175.495 60.2494 176.423 60.0199 177.347 60.1119C178.271 60.2039 179.135 60.6116 179.79 61.2656C180.164 61.6351 180.46 62.0748 180.661 62.559C180.862 63.0432 180.964 63.5623 180.961 64.0862Z" fill="#FA5A2A"/>
<path d="M201.006 64.0862C201.005 65.0095 200.682 65.9039 200.092 66.617C199.502 67.3301 198.682 67.8178 197.771 67.9969C196.86 68.176 195.914 68.0354 195.096 67.5992C194.277 67.1629 193.636 66.458 193.282 65.6045C192.928 64.751 192.882 63.8018 193.153 62.9186C193.424 62.0354 193.994 61.273 194.767 60.7612C195.54 60.2494 196.468 60.0199 197.392 60.1119C198.316 60.2039 199.18 60.6116 199.835 61.2656C200.209 61.6351 200.505 62.0748 200.706 62.559C200.907 63.0432 201.009 63.5623 201.006 64.0862Z" fill="#FA5A2A"/>
<path d="M219.469 25.764L212.52 15.8164H205.605L214.339 28.3208C214.761 28.9201 214.964 29.6452 214.913 30.3753C214.863 31.1053 214.562 31.7961 214.062 32.3324C213.54 32.9051 212.825 33.2663 212.052 33.347L158.716 33.3683L152.825 24.8833H145.523L168.113 57.4284H198.545C205.855 57.4284 210.149 49.2616 205.978 43.2946L203.599 39.8979H212.034C219.344 39.8979 223.64 31.7291 219.469 25.764ZM198.563 50.8872C198.5 50.8872 170.822 50.9085 170.822 50.9085L163.27 39.9871H196.746L200.844 45.8591C201.162 46.3154 201.356 46.8459 201.408 47.399C201.459 47.952 201.365 48.5088 201.135 49.0151C200.905 49.5214 200.548 49.9599 200.097 50.288C199.646 50.6161 199.118 50.8225 198.563 50.8872Z" fill="#FA5A2A"/>
<path d="M191.412 22.4489L197.326 30.9261H190.415L187.513 26.771C186.581 25.4372 185.337 24.3476 183.889 23.595C182.441 22.8424 180.831 22.4492 179.197 22.4489H143.821L143.754 22.3519L139.198 15.8301C153.889 15.8301 198.946 15.8185 202.626 15.8301L207.264 22.4489H191.412Z" fill="#FA5A2A"/>
<path d="M144.909 13.3878H137.604L135.457 10.3131C131.717 4.56725 135.865 0.441162 135.865 0.441162L144.909 13.3878Z" fill="#FA5A2A"/>
</g>
<path d="M201.324 85.0796V93.7397C201.321 94.0166 201.302 94.293 201.269 94.5679C201.236 94.7874 201.19 95.0046 201.13 95.2183C201.126 95.2546 201.116 95.2902 201.102 95.3239C201.102 95.3239 201.102 95.3739 201.102 95.385C201.035 95.5907 200.946 95.7852 200.869 95.9409C200.791 96.0965 200.646 96.3411 200.53 96.5245C200.293 96.869 200.004 97.1747 199.674 97.4305C199.36 97.6795 199.016 97.8886 198.651 98.0531C198.31 98.2162 197.949 98.3339 197.578 98.4033C197.242 98.4783 196.899 98.5175 196.555 98.52H191.864C191.52 98.5164 191.177 98.4772 190.841 98.4033C190.471 98.3306 190.11 98.213 189.768 98.0531C189.405 97.891 189.065 97.6817 188.757 97.4305C188.42 97.178 188.127 96.8719 187.89 96.5245C187.767 96.3364 187.656 96.1416 187.556 95.9409C187.468 95.7599 187.39 95.5744 187.323 95.385C187.31 95.3604 187.301 95.3342 187.295 95.3072C187.287 95.277 187.278 95.2473 187.267 95.2183C187.207 95.0046 187.161 94.7874 187.128 94.5679C187.089 94.2936 187.07 94.0168 187.072 93.7397V85.0796C187.072 84.7361 187.209 84.4067 187.452 84.1638C187.695 83.9209 188.024 83.7844 188.368 83.7844C188.711 83.7844 189.04 83.9209 189.283 84.1638C189.526 84.4067 189.663 84.7361 189.663 85.0796V91.3829C189.663 92.5849 190.14 93.7377 190.989 94.5882C191.839 95.4386 192.991 95.9172 194.193 95.9186C195.394 95.9142 196.544 95.4348 197.393 94.5849C198.242 93.7351 198.72 92.584 198.723 91.3829V85.0796C198.727 84.7355 198.867 84.407 199.111 84.1647C199.355 83.9224 199.685 83.7859 200.029 83.7844C200.2 83.7837 200.368 83.8167 200.526 83.8815C200.683 83.9464 200.826 84.0417 200.947 84.1621C201.067 84.2825 201.162 84.4256 201.227 84.5831C201.292 84.7405 201.325 84.9093 201.324 85.0796Z" fill="#FA5A2A"/>
<path d="M191.95 78.865C191.951 79.0988 191.902 79.3301 191.806 79.5431C191.716 79.7494 191.59 79.9378 191.433 80.099C191.274 80.2566 191.085 80.3812 190.878 80.4658C190.669 80.5578 190.444 80.6033 190.216 80.5992C189.985 80.6039 189.755 80.5584 189.543 80.4658C189.336 80.3812 189.147 80.2566 188.988 80.099C188.831 79.939 188.706 79.7503 188.621 79.5431C188.531 79.3285 188.485 79.0977 188.487 78.865C188.486 78.6377 188.532 78.4126 188.621 78.2035C188.706 77.9964 188.831 77.8076 188.988 77.6477C189.148 77.4884 189.336 77.3603 189.543 77.2697C189.755 77.1753 189.984 77.1279 190.216 77.1307C190.444 77.1284 190.67 77.1758 190.878 77.2697C191.085 77.3603 191.273 77.4884 191.433 77.6477C191.59 77.8089 191.716 77.9972 191.806 78.2035C191.9 78.4113 191.95 78.6368 191.95 78.865Z" fill="#FA5A2A"/>
<path d="M197.049 76.0969C197.221 76.0462 197.407 76.0641 197.566 76.147L197.683 76.2248C197.754 76.2861 197.811 76.3613 197.852 76.4456C197.893 76.53 197.916 76.6218 197.92 76.7155C197.925 76.8091 197.91 76.9026 197.876 76.9903C197.843 77.078 197.792 77.1579 197.727 77.2253C197.659 77.2934 197.578 77.3465 197.488 77.381C197.391 77.4187 197.296 77.4633 197.205 77.5144C196.976 77.6455 196.768 77.8104 196.588 78.0035C196.825 77.9355 197.069 77.8981 197.316 77.8923C197.759 77.8852 198.201 77.9606 198.617 78.1147C198.949 78.2403 199.268 78.4005 199.567 78.5927C199.7 78.683 199.799 78.8165 199.845 78.9707C199.892 79.1228 199.882 79.2866 199.817 79.432C199.756 79.5848 199.639 79.7083 199.489 79.7767C199.345 79.8484 199.179 79.8662 199.022 79.8267C198.947 79.8067 198.876 79.7748 198.811 79.7322C198.533 79.5484 198.227 79.4096 197.905 79.3209C197.675 79.2598 197.436 79.2428 197.199 79.2708C196.992 79.2942 196.79 79.3545 196.604 79.4487C196.445 79.5287 196.296 79.6276 196.16 79.7433C195.999 79.8772 195.855 80.0302 195.732 80.1991C195.687 80.2491 195.659 80.3103 195.609 80.3603C195.545 80.4359 195.463 80.4957 195.372 80.5352C195.28 80.5747 195.181 80.5928 195.081 80.5882C194.99 80.5867 194.9 80.5667 194.817 80.5294C194.734 80.4922 194.66 80.4384 194.598 80.3714C194.491 80.2536 194.428 80.1023 194.42 79.9434C194.463 79.0048 194.786 78.1007 195.348 77.3476C195.605 77.0262 195.906 76.7435 196.243 76.5083C196.488 76.3292 196.76 76.1904 197.049 76.0969Z" fill="#FA5A2A"/>
<path d="M97.7465 95.4126C97.7416 95.7599 97.6854 96.1046 97.5798 96.4354C97.4664 96.8225 97.274 97.182 97.0147 97.491C96.7555 97.8 96.4349 98.0519 96.0734 98.2308C95.6194 98.4545 95.1174 98.5633 94.6115 98.5476H84.8063C84.629 98.5499 84.4531 98.5158 84.2894 98.4476C84.1331 98.3867 83.9911 98.294 83.8724 98.1753C83.7538 98.0567 83.6611 97.9147 83.6002 97.7583C83.5319 97.5946 83.4979 97.4187 83.5001 97.2414V85.5686C83.4994 85.3932 83.5334 85.2194 83.6002 85.0572C83.665 84.9029 83.7573 84.7616 83.8725 84.6403C83.9917 84.5209 84.1334 84.4265 84.2894 84.3624C84.4531 84.2941 84.629 84.2601 84.8063 84.2623H93.4665C93.8161 84.2666 94.1629 84.3247 94.4948 84.4346C94.8663 84.5531 95.2116 84.7418 95.512 84.9905C95.8408 85.2554 96.1098 85.5869 96.3013 85.9632C96.5206 86.4186 96.6273 86.9199 96.6126 87.4251V87.9142C96.605 88.4152 96.5283 88.9128 96.3847 89.3928C96.2272 89.9322 95.9771 90.44 95.6454 90.8936C95.9436 91.076 96.2197 91.2924 96.4681 91.5384C96.7306 91.7996 96.9568 92.095 97.1406 92.4166C97.3419 92.7657 97.4969 93.1394 97.602 93.5283C97.7175 93.9805 97.7735 94.4457 97.7687 94.9124L97.7465 95.4126ZM95.1563 94.9124C95.1617 94.6015 95.109 94.2923 95.0006 94.0008C94.8992 93.7427 94.746 93.5081 94.5504 93.3115C94.3544 93.114 94.1171 92.9621 93.8556 92.8669C93.5622 92.7585 93.2512 92.7057 92.9384 92.7112H87.102V90.1043H91.7711C92.0839 90.1098 92.3949 90.057 92.6883 89.9487C92.9505 89.8548 93.188 89.7027 93.3831 89.504C93.5806 89.31 93.7325 89.0746 93.8278 88.8147C93.9366 88.5234 93.9894 88.2141 93.9834 87.9031V87.414C93.9834 87.0416 93.8055 86.8581 93.4276 86.8581H86.0737V95.9574H94.6338C94.6892 95.9622 94.745 95.9622 94.8005 95.9574C94.8636 95.9542 94.9248 95.9351 94.9784 95.9018C95.0398 95.8583 95.0879 95.7987 95.1174 95.7295C95.1647 95.627 95.1857 95.5142 95.1785 95.4015L95.1563 94.9124Z" fill="#FA5A2A"/>
<path d="M113.633 98.5477H111.838C111.732 98.5477 111.63 98.5055 111.555 98.4304C111.48 98.3554 111.438 98.2536 111.438 98.1475V95.0402H102.338V98.1475C102.339 98.1997 102.329 98.2517 102.31 98.3002C102.29 98.3487 102.261 98.3929 102.225 98.4301C102.188 98.4673 102.144 98.4969 102.096 98.5171C102.048 98.5373 101.996 98.5477 101.944 98.5477H100.148C100.042 98.5477 99.9404 98.5055 99.8653 98.4304C99.7903 98.3554 99.7481 98.2536 99.7481 98.1475V91.4106C99.7438 90.4237 99.9327 89.4456 100.304 88.5313C100.644 87.6838 101.153 86.9142 101.799 86.2689C102.446 85.6332 103.213 85.1325 104.056 84.796C104.964 84.4382 105.932 84.2589 106.907 84.2679H112.755C112.929 84.2672 113.101 84.3012 113.261 84.3679C113.417 84.4321 113.559 84.5265 113.678 84.6459C113.796 84.7656 113.891 84.9072 113.956 85.0628C114.022 85.2249 114.056 85.3987 114.056 85.5741V98.1475C114.057 98.2022 114.046 98.2565 114.025 98.3069C114.004 98.3574 113.972 98.4029 113.932 98.4405C113.893 98.4781 113.846 98.5071 113.794 98.5255C113.743 98.544 113.688 98.5515 113.633 98.5477ZM102.338 92.4333H111.438V86.8581H106.891L106.385 86.8915C106.085 86.9233 105.79 86.9828 105.501 87.0694C105.133 87.1729 104.777 87.3164 104.439 87.4974C104.053 87.6986 103.707 87.9678 103.417 88.2922C103.084 88.6637 102.822 89.0933 102.644 89.5596C102.425 90.1514 102.321 90.7797 102.338 91.4106V92.4333Z" fill="#FA5A2A"/>
<path d="M129.251 85.0462C129.349 85.2774 129.38 85.5319 129.34 85.78C129.306 86.0249 129.195 86.2528 129.023 86.4303L120.479 95.9576H128.817C128.869 95.9576 128.921 95.9679 128.969 95.9881C129.018 96.0083 129.061 96.0379 129.098 96.0751C129.135 96.1123 129.164 96.1565 129.183 96.205C129.203 96.2536 129.212 96.3055 129.212 96.3578V98.1476C129.212 98.1999 129.203 98.2518 129.183 98.3003C129.164 98.3489 129.135 98.393 129.098 98.4303C129.061 98.4675 129.018 98.4971 128.969 98.5173C128.921 98.5374 128.869 98.5478 128.817 98.5478H117.561C117.311 98.5478 117.067 98.4723 116.861 98.331C116.649 98.197 116.481 98.0037 116.377 97.7752C116.265 97.55 116.228 97.2948 116.272 97.047C116.313 96.803 116.423 96.5756 116.588 96.3911L125.149 86.8639H116.777C116.671 86.8639 116.569 86.8217 116.494 86.7466C116.419 86.6716 116.377 86.5698 116.377 86.4637V84.6905C116.377 84.5844 116.419 84.4826 116.494 84.4075C116.569 84.3325 116.671 84.2903 116.777 84.2903H128.067C128.317 84.2903 128.561 84.3658 128.767 84.5071C128.977 84.6367 129.145 84.8238 129.251 85.0462Z" fill="#FA5A2A"/>
<path d="M145.192 98.5477H143.397C143.345 98.5477 143.293 98.5373 143.245 98.5171C143.196 98.497 143.153 98.4674 143.116 98.4301C143.079 98.3929 143.05 98.3487 143.031 98.3002C143.011 98.2517 143.001 98.1998 143.002 98.1475V95.0403H133.903V98.1475C133.903 98.2536 133.861 98.3554 133.786 98.4305C133.711 98.5055 133.609 98.5477 133.503 98.5477H131.707C131.655 98.5477 131.603 98.5373 131.555 98.5171C131.507 98.497 131.463 98.4674 131.426 98.4301C131.39 98.3929 131.361 98.3487 131.341 98.3002C131.322 98.2517 131.312 98.1998 131.313 98.1475V91.4106C131.306 90.4235 131.495 89.4448 131.869 88.5313C132.207 87.6841 132.714 86.9145 133.358 86.269C134.006 85.6319 134.776 85.1311 135.621 84.796C136.526 84.4378 137.493 84.2584 138.466 84.2679H144.303C144.477 84.2667 144.649 84.3008 144.809 84.368C144.966 84.4334 145.109 84.5277 145.231 84.6459C145.348 84.767 145.442 84.9083 145.509 85.0628C145.576 85.225 145.61 85.3988 145.609 85.5742V98.1475C145.609 98.2015 145.598 98.2549 145.577 98.3046C145.556 98.3543 145.525 98.3992 145.486 98.4365C145.447 98.4739 145.401 98.5031 145.351 98.5222C145.3 98.5413 145.246 98.5499 145.192 98.5477ZM133.903 92.4334H143.002V86.8582H138.45L137.95 86.8915C137.648 86.9238 137.351 86.9833 137.06 87.0694C136.693 87.172 136.339 87.3156 136.004 87.4974C135.616 87.6984 135.268 87.9677 134.976 88.2923C134.645 88.6652 134.383 89.0944 134.203 89.5596C133.989 90.1525 133.887 90.7803 133.903 91.4106V92.4334Z" fill="#FA5A2A"/>
<path d="M162.869 89.0704C162.875 89.6048 162.801 90.1371 162.647 90.649C162.4 91.4984 161.892 92.2489 161.196 92.7946C160.88 93.0383 160.537 93.2453 160.173 93.4116C159.832 93.5731 159.471 93.6925 159.101 93.7673C158.764 93.8374 158.422 93.8746 158.078 93.8785L162.675 97.8472C162.735 97.9008 162.779 97.9716 162.798 98.0501C162.818 98.1287 162.813 98.2114 162.785 98.2873C162.757 98.3632 162.706 98.4287 162.64 98.4752C162.573 98.5216 162.494 98.5469 162.413 98.5476H159.634C159.538 98.5483 159.444 98.5126 159.373 98.4476L154.092 93.8785H152.219V91.2882H158.072C158.378 91.2657 158.678 91.1964 158.962 91.0826C159.221 90.9812 159.458 90.8323 159.662 90.6434C159.858 90.4535 160.011 90.2243 160.112 89.9709C160.223 89.6838 160.278 89.3781 160.273 89.0704V87.4362C160.277 87.3224 160.258 87.2091 160.218 87.1027C160.187 87.0343 160.139 86.975 160.079 86.9304C160.025 86.8969 159.964 86.876 159.901 86.8692C159.842 86.864 159.782 86.864 159.723 86.8692H151.185V98.1585C151.186 98.2108 151.176 98.2627 151.157 98.3112C151.137 98.3598 151.108 98.4039 151.072 98.4412C151.035 98.4784 150.991 98.508 150.943 98.5282C150.895 98.5483 150.843 98.5587 150.791 98.5587H148.995C148.943 98.5587 148.891 98.5483 148.843 98.5282C148.795 98.508 148.751 98.4784 148.714 98.4412C148.678 98.4039 148.649 98.3598 148.629 98.3112C148.61 98.2627 148.6 98.2108 148.601 98.1585V85.5741C148.601 85.3993 148.633 85.226 148.695 85.0627C148.762 84.9082 148.856 84.7669 148.973 84.6458C149.09 84.5266 149.23 84.4321 149.384 84.3679C149.548 84.3007 149.724 84.2667 149.901 84.2678H159.729C160.236 84.2522 160.74 84.3609 161.196 84.5847C161.571 84.774 161.9 85.0413 162.163 85.3684C162.412 85.6708 162.601 86.018 162.719 86.3912C162.825 86.7219 162.881 87.0666 162.886 87.4139L162.869 89.0704Z" fill="#FA5A2A"/>
<path d="M184.276 86.8583H178.967V98.1476C178.967 98.2002 178.957 98.2522 178.937 98.3008C178.917 98.3493 178.887 98.3934 178.85 98.4306C178.813 98.4678 178.769 98.4972 178.72 98.5174C178.672 98.5375 178.62 98.5478 178.567 98.5478H176.777C176.671 98.5478 176.569 98.5056 176.494 98.4306C176.419 98.3555 176.377 98.2537 176.377 98.1476V86.8583H171.063C170.957 86.8583 170.855 86.8161 170.78 86.7411C170.705 86.666 170.663 86.5642 170.663 86.4581V84.6905C170.663 84.5844 170.705 84.4826 170.78 84.4075C170.855 84.3325 170.957 84.2903 171.063 84.2903H184.276C184.328 84.2903 184.38 84.3007 184.428 84.3209C184.476 84.341 184.52 84.3706 184.557 84.4078C184.594 84.4451 184.623 84.4892 184.642 84.5378C184.662 84.5863 184.671 84.6382 184.67 84.6905V86.4803C184.666 86.5821 184.623 86.6782 184.549 86.7487C184.476 86.8191 184.378 86.8584 184.276 86.8583Z" fill="#FA5A2A"/>
<path d="M217.839 89.0705C217.847 89.6046 217.774 90.1369 217.622 90.6491C217.49 91.0891 217.289 91.5055 217.027 91.8831C216.787 92.2284 216.497 92.5356 216.166 92.7947C215.852 93.0396 215.511 93.2467 215.149 93.4117C214.805 93.5733 214.443 93.6927 214.07 93.7674C213.736 93.8377 213.395 93.875 213.053 93.8786L217.65 97.8474C217.711 97.9009 217.754 97.9717 217.773 98.0502C217.793 98.1288 217.789 98.2115 217.76 98.2874C217.732 98.3633 217.681 98.4288 217.615 98.4753C217.549 98.5218 217.47 98.547 217.389 98.5477H214.609C214.513 98.5485 214.42 98.5127 214.348 98.4477L209.062 93.8786H207.194V91.2883H213.053C213.358 91.2659 213.658 91.1965 213.942 91.0827C214.2 90.9817 214.436 90.8327 214.637 90.6436C214.837 90.4554 214.992 90.2258 215.093 89.971C215.204 89.6839 215.259 89.3782 215.254 89.0705V87.4363C215.258 87.3226 215.239 87.2092 215.199 87.1028C215.168 87.0344 215.12 86.9751 215.06 86.9305C215.004 86.8971 214.941 86.8762 214.876 86.8693C214.819 86.864 214.761 86.864 214.704 86.8693H206.138V98.1586C206.139 98.2109 206.129 98.2628 206.11 98.3114C206.09 98.3599 206.061 98.4041 206.025 98.4413C205.988 98.4785 205.944 98.5081 205.896 98.5283C205.848 98.5485 205.796 98.5588 205.744 98.5588H203.971C203.918 98.5588 203.866 98.5485 203.817 98.5284C203.769 98.5083 203.725 98.4788 203.688 98.4416C203.65 98.4045 203.621 98.3603 203.601 98.3118C203.581 98.2632 203.57 98.2112 203.57 98.1586V85.5742C203.57 85.3988 203.604 85.225 203.67 85.0628C203.737 84.9083 203.831 84.7671 203.948 84.6459C204.064 84.5255 204.205 84.4308 204.36 84.368C204.524 84.3008 204.699 84.2668 204.877 84.268H214.704C215.21 84.2516 215.712 84.3604 216.166 84.5848C216.543 84.7725 216.875 85.0399 217.139 85.3685C217.387 85.671 217.576 86.0181 217.694 86.3913C217.796 86.7229 217.85 87.0673 217.856 87.4141L217.839 89.0705Z" fill="#FA5A2A"/>
<path d="M222.651 98.5476H220.855C220.803 98.5476 220.751 98.5372 220.702 98.5171C220.654 98.497 220.609 98.4675 220.572 98.4304C220.535 98.3932 220.506 98.3491 220.486 98.3005C220.465 98.252 220.455 98.1999 220.455 98.1474V84.6903C220.455 84.6377 220.465 84.5857 220.486 84.5371C220.506 84.4886 220.535 84.4444 220.572 84.4073C220.609 84.3701 220.654 84.3406 220.702 84.3205C220.751 84.3004 220.803 84.2901 220.855 84.2901H222.651C222.703 84.29 222.755 84.3004 222.803 84.3206C222.851 84.3408 222.895 84.3704 222.932 84.4076C222.968 84.4448 222.997 84.489 223.017 84.5375C223.036 84.5861 223.046 84.638 223.045 84.6903V98.1696C223.041 98.2714 222.998 98.3675 222.924 98.4379C222.85 98.5084 222.753 98.5477 222.651 98.5476ZM234.424 98.5476H231.894C231.789 98.5461 231.687 98.5044 231.611 98.4309L225.902 92.7112H224.079V90.1042H225.902L231.611 84.3845C231.687 84.311 231.789 84.2693 231.894 84.2678H234.424C234.502 84.2687 234.579 84.2929 234.644 84.3373C234.709 84.3816 234.76 84.4443 234.79 84.5173C234.819 84.5903 234.827 84.6705 234.811 84.7477C234.795 84.825 234.757 84.8959 234.701 84.9515L228.065 91.4105L234.701 97.8639C234.757 97.9195 234.795 97.9904 234.811 98.0677C234.827 98.1449 234.819 98.2251 234.79 98.2981C234.76 98.3711 234.709 98.4338 234.644 98.4782C234.579 98.5225 234.502 98.5467 234.424 98.5476Z" fill="#FA5A2A"/>
<path d="M239.36 98.5478H237.565C237.512 98.5478 237.461 98.5374 237.412 98.5173C237.364 98.4971 237.32 98.4675 237.284 98.4303C237.247 98.393 237.218 98.3489 237.198 98.3003C237.179 98.2518 237.169 98.1999 237.17 98.1476V84.6905C237.169 84.6382 237.179 84.5863 237.198 84.5378C237.218 84.4892 237.247 84.4451 237.284 84.4078C237.32 84.3706 237.364 84.341 237.412 84.3209C237.461 84.3007 237.512 84.2903 237.565 84.2903H239.36C239.412 84.2903 239.464 84.3007 239.512 84.3209C239.561 84.341 239.604 84.3706 239.641 84.4078C239.678 84.4451 239.707 84.4892 239.726 84.5378C239.746 84.5863 239.755 84.6382 239.755 84.6905V98.1698C239.75 98.2716 239.707 98.3677 239.633 98.4382C239.56 98.5086 239.462 98.5479 239.36 98.5478Z" fill="#FA5A2A"/>
<path d="M256.264 89.0484C256.273 89.5847 256.198 90.1192 256.042 90.6325C255.904 91.0685 255.704 91.4822 255.447 91.8609C255.21 92.2086 254.92 92.5163 254.586 92.7725C254.271 93.0167 253.929 93.2255 253.569 93.3951C253.226 93.5525 252.866 93.6699 252.496 93.7453C252.16 93.8186 251.817 93.8559 251.473 93.8565H250.428V98.1476C250.429 98.1999 250.419 98.2518 250.4 98.3003C250.38 98.3489 250.351 98.393 250.314 98.4303C250.278 98.4675 250.234 98.4971 250.186 98.5173C250.137 98.5374 250.086 98.5478 250.033 98.5478H248.221C248.115 98.5478 248.013 98.5056 247.938 98.4306C247.863 98.3555 247.821 98.2537 247.821 98.1476V93.8565H246.787C246.064 93.8496 245.351 93.6925 244.692 93.3951C244.328 93.2282 243.984 93.0192 243.669 92.7725C243.342 92.5135 243.058 92.2061 242.824 91.8609C242.562 91.4833 242.362 91.0669 242.229 90.627C242.072 90.1158 241.995 89.5832 242.001 89.0484V84.6905C242.001 84.5844 242.044 84.4826 242.119 84.4075C242.194 84.3325 242.295 84.2903 242.402 84.2903H244.191C244.298 84.2903 244.399 84.3325 244.474 84.4075C244.549 84.4826 244.592 84.5844 244.592 84.6905V89.0706C244.587 89.3819 244.642 89.6912 244.753 89.9822C244.852 90.24 245.004 90.4745 245.197 90.6714C245.397 90.8704 245.638 91.0223 245.903 91.1161C246.197 91.2245 246.508 91.2773 246.821 91.2717H251.49C251.74 91.2328 251.99 91.1773 252.246 91.1161C252.501 91.0548 252.743 90.9454 252.957 90.7937C253.181 90.6251 253.362 90.4061 253.485 90.1545C253.637 89.8141 253.707 89.443 253.691 89.0706V84.6905C253.691 84.5844 253.733 84.4826 253.808 84.4075C253.883 84.3325 253.985 84.2903 254.091 84.2903H255.881C255.987 84.2903 256.089 84.3325 256.164 84.4075C256.239 84.4826 256.281 84.5844 256.281 84.6905L256.264 89.0484Z" fill="#FA5A2A"/>
<path d="M271.5 98.1474C271.5 98.2535 271.458 98.3553 271.383 98.4304C271.308 98.5054 271.206 98.5476 271.1 98.5476H262.156C261.758 98.5422 261.363 98.4785 260.983 98.3586C260.535 98.2245 260.119 98 259.76 97.6988C259.402 97.3977 259.108 97.0264 258.899 96.6077C258.639 96.0813 258.513 95.499 258.532 94.9124V85.5741C258.531 85.3987 258.565 85.2249 258.632 85.0627C258.699 84.9082 258.793 84.767 258.91 84.6458C259.026 84.5254 259.166 84.4307 259.321 84.3679C259.485 84.3007 259.661 84.2667 259.838 84.2679H271.1C271.206 84.2679 271.308 84.31 271.383 84.3851C271.458 84.4601 271.5 84.5619 271.5 84.6681V86.4579C271.5 86.564 271.458 86.6658 271.383 86.7409C271.308 86.8159 271.206 86.8581 271.1 86.8581H261.122V94.9124C261.113 95.0533 261.131 95.1948 261.177 95.3285C261.223 95.4622 261.295 95.5853 261.389 95.6905C261.608 95.8784 261.891 95.9741 262.178 95.9574H271.1C271.152 95.9574 271.204 95.9677 271.253 95.9878C271.302 96.0079 271.346 96.0374 271.383 96.0746C271.42 96.1117 271.449 96.1559 271.47 96.2044C271.49 96.253 271.5 96.305 271.5 96.3576V98.1474ZM269.933 92.7112H262.151V90.1043H269.933C269.985 90.1035 270.037 90.1132 270.085 90.1327C270.134 90.1522 270.178 90.1811 270.215 90.2179C270.252 90.2546 270.282 90.2983 270.302 90.3466C270.322 90.3948 270.333 90.4466 270.333 90.4989V92.3165C270.333 92.3688 270.322 92.4206 270.302 92.4689C270.282 92.5171 270.252 92.5609 270.215 92.5976C270.178 92.6343 270.134 92.6633 270.085 92.6828C270.037 92.7023 269.985 92.7119 269.933 92.7112Z" fill="#FA5A2A"/>
<path d="M240.19 78.865C240.191 79.0988 240.141 79.33 240.045 79.5431C239.958 79.7505 239.831 79.9392 239.673 80.0989C239.513 80.2565 239.324 80.3812 239.117 80.4658C238.909 80.5578 238.683 80.6033 238.455 80.5992C238.224 80.6033 237.995 80.5578 237.783 80.4658C237.575 80.3812 237.386 80.2565 237.227 80.0989C237.07 79.939 236.945 79.7503 236.86 79.5431C236.77 79.3284 236.725 79.0977 236.727 78.865C236.726 78.6377 236.771 78.4126 236.86 78.2035C236.945 77.9963 237.07 77.8076 237.227 77.6476C237.387 77.4884 237.576 77.3602 237.783 77.2697C237.994 77.1757 238.224 77.1283 238.455 77.1307C238.683 77.1284 238.909 77.1758 239.117 77.2697C239.324 77.3602 239.512 77.4884 239.673 77.6476C239.831 77.8074 239.958 77.9961 240.045 78.2035C240.139 78.4113 240.189 78.6367 240.19 78.865Z" fill="#FA5A2A"/>
<defs>
<clipPath id="clip0_177_2572">
<rect width="87.2039" height="67.6275" fill="white" transform="translate(133.898 0.441162)"/>
</clipPath>
</defs>
</svg>
