<svg width="555" height="555" viewBox="0 0 555 555" fill="none" xmlns="http://www.w3.org/2000/svg">
<path d="M138.929 476.11C138.781 476.11 138.637 476.033 138.557 475.895C138.437 475.689 138.506 475.425 138.712 475.303L251.249 409.885C251.455 409.766 251.719 409.834 251.841 410.043C251.96 410.249 251.892 410.513 251.686 410.634L139.149 476.053C139.078 476.09 139.002 476.11 138.929 476.11Z" fill="#DBDEE4"/>
<path d="M472.832 315.524C472.757 315.524 472.684 315.506 472.617 315.466L419.284 284.668C418.251 284.072 417.633 283.003 417.633 281.811C417.633 280.619 418.247 279.551 419.277 278.95L472.243 248.162C472.451 248.043 472.712 248.111 472.834 248.32C472.954 248.526 472.885 248.789 472.679 248.911L419.716 279.699C418.956 280.14 418.502 280.929 418.502 281.811C418.504 282.691 418.958 283.482 419.723 283.923L473.056 314.722C473.262 314.841 473.333 315.105 473.215 315.311C473.127 315.446 472.981 315.524 472.832 315.524Z" fill="#DBDEE4"/>
<path d="M465.337 316.521C462.213 314.717 462.195 311.792 465.3 309.988C468.403 308.184 473.455 308.184 476.58 309.988C479.705 311.792 479.718 314.717 476.616 316.519C473.511 318.323 468.462 318.323 465.337 316.521Z" fill="white"/>
<path d="M470.977 318.296C468.859 318.296 466.735 317.829 465.118 316.894C463.462 315.938 462.549 314.64 462.547 313.241C462.545 311.852 463.442 310.562 465.076 309.613C468.298 307.743 473.553 307.743 476.79 309.613C478.444 310.568 479.357 311.865 479.359 313.263C479.361 314.653 478.464 315.943 476.828 316.894C475.219 317.829 473.098 318.296 470.977 318.296ZM465.55 316.147C468.553 317.875 473.415 317.88 476.394 316.147C477.752 315.358 478.499 314.334 478.497 313.266C478.495 312.189 477.737 311.158 476.36 310.362C473.36 308.632 468.491 308.629 465.512 310.362C464.156 311.151 463.409 312.173 463.411 313.241C463.413 314.318 464.171 315.351 465.55 316.147Z" fill="#DBDEE4"/>
<path d="M470.939 311.194C472.158 311.194 473.334 311.471 474.172 311.954C474.844 312.342 475.232 312.819 475.232 313.262C475.232 313.701 474.855 314.171 474.194 314.554C473.363 315.037 472.191 315.314 470.974 315.314C469.757 315.314 468.581 315.037 467.743 314.554C467.069 314.166 466.684 313.688 466.684 313.244C466.684 312.805 467.06 312.336 467.721 311.952C468.55 311.469 469.722 311.194 470.939 311.194Z" fill="#FA5A2A"/>
<path d="M443.432 295.539C444.739 295.539 446.005 295.836 446.905 296.356C447.627 296.773 448.041 297.285 448.041 297.761C448.041 298.231 447.636 298.739 446.927 299.151C446.036 299.67 444.775 299.967 443.467 299.967C442.16 299.967 440.896 299.67 439.997 299.151C439.274 298.734 438.86 298.22 438.857 297.744C438.857 297.274 439.263 296.769 439.972 296.356C440.865 295.836 442.126 295.539 443.432 295.539Z" fill="#373B42"/>
<path d="M437.561 481.376C436.685 481.376 435.808 481.15 435.025 480.698L383.738 451.076C383.532 450.956 383.461 450.692 383.578 450.486C383.698 450.278 383.966 450.209 384.17 450.329L435.457 479.951C436.756 480.7 438.372 480.7 439.673 479.944L490.615 450.327C490.821 450.207 491.084 450.276 491.206 450.484C491.326 450.69 491.257 450.954 491.051 451.076L440.109 480.693C439.323 481.148 438.443 481.376 437.561 481.376Z" fill="#DBDEE4"/>
<path d="M481.945 449.383C478.823 451.187 478.805 454.113 481.908 455.917C485.01 457.721 490.061 457.721 493.184 455.917C496.306 454.113 496.322 451.187 493.219 449.385C490.116 447.584 485.068 447.579 481.945 449.383Z" fill="white"/>
<path d="M487.533 457.694C485.415 457.694 483.296 457.226 481.687 456.291C480.054 455.34 479.156 454.053 479.158 452.661C479.16 451.262 480.073 449.964 481.729 449.009C484.969 447.138 490.222 447.14 493.435 449.009C495.071 449.959 495.968 451.247 495.966 452.639C495.964 454.037 495.051 455.334 493.397 456.289C491.777 457.226 489.654 457.694 487.533 457.694ZM482.159 449.758C480.783 450.553 480.023 451.586 480.02 452.663C480.018 453.731 480.765 454.755 482.121 455.544C485.098 457.277 489.962 457.275 492.963 455.544C494.339 454.749 495.097 453.718 495.099 452.641C495.102 451.573 494.355 450.549 492.996 449.76C490.022 448.027 485.162 448.025 482.159 449.758Z" fill="#DBDEE4"/>
<path d="M487.544 454.712C488.761 454.712 489.94 454.435 490.778 453.951C491.449 453.564 491.835 453.087 491.837 452.644C491.837 452.205 491.46 451.735 490.8 451.352C489.969 450.869 488.796 450.592 487.58 450.592C486.363 450.592 485.186 450.869 484.348 451.352C483.675 451.74 483.289 452.218 483.289 452.662C483.289 453.1 483.666 453.57 484.326 453.954C485.153 454.435 486.327 454.712 487.544 454.712Z" fill="#FA5A2A"/>
<path d="M460.05 470.365C461.358 470.365 462.623 470.068 463.523 469.547C464.245 469.13 464.66 468.618 464.66 468.142C464.66 467.672 464.254 467.164 463.545 466.752C462.654 466.234 461.393 465.937 460.088 465.937C458.782 465.937 457.517 466.234 456.619 466.752C455.897 467.169 455.482 467.683 455.482 468.159C455.482 468.629 455.888 469.135 456.595 469.547C457.486 470.068 458.745 470.365 460.05 470.365Z" fill="#373B42"/>
<path d="M144.208 478.947C147.331 477.143 147.348 474.217 144.246 472.413C141.143 470.609 136.092 470.609 132.969 472.413C129.847 474.217 129.831 477.143 132.934 478.944C136.037 480.748 141.085 480.751 144.208 478.947Z" fill="white"/>
<path d="M138.569 480.721C136.45 480.721 134.331 480.253 132.722 479.318C131.087 478.367 130.189 477.079 130.191 475.688C130.194 474.289 131.107 472.993 132.76 472.038C135.996 470.167 141.248 470.167 144.47 472.038C146.104 472.988 147.001 474.276 146.999 475.665C146.997 477.066 146.084 478.363 144.428 479.318C142.808 480.253 140.687 480.721 138.569 480.721ZM138.62 471.486C136.656 471.486 134.69 471.92 133.19 472.784C131.814 473.58 131.056 474.611 131.054 475.688C131.051 476.756 131.798 477.78 133.157 478.569C136.133 480.302 140.998 480.302 143.996 478.569C145.372 477.773 146.133 476.74 146.135 475.661C146.137 474.593 145.39 473.569 144.034 472.782C142.545 471.92 140.583 471.486 138.62 471.486Z" fill="#DBDEE4"/>
<path d="M138.609 473.617C137.393 473.617 136.213 473.894 135.376 474.378C134.704 474.765 134.319 475.242 134.316 475.685C134.316 476.124 134.693 476.594 135.354 476.977C136.185 477.46 137.357 477.737 138.574 477.737C139.79 477.737 140.967 477.46 141.805 476.977C142.479 476.589 142.864 476.111 142.864 475.667C142.864 475.229 142.488 474.759 141.827 474.375C140.998 473.894 139.826 473.617 138.609 473.617Z" fill="#FA5A2A"/>
<path d="M166.102 457.965C164.794 457.965 163.529 458.262 162.629 458.783C161.907 459.2 161.492 459.712 161.492 460.188C161.492 460.658 161.898 461.165 162.607 461.578C163.498 462.096 164.759 462.393 166.064 462.393C167.37 462.393 168.635 462.096 169.533 461.578C170.255 461.161 170.67 460.647 170.67 460.17C170.67 459.7 170.264 459.195 169.557 458.783C168.668 458.262 167.409 457.965 166.102 457.965Z" fill="#373B42"/>
<path d="M488.914 161.69C488.766 161.69 488.622 161.613 488.54 161.475C488.422 161.269 488.491 161.005 488.699 160.884L497.934 155.536C498.136 155.416 498.404 155.485 498.526 155.693C498.643 155.899 498.575 156.163 498.366 156.285L489.131 161.633C489.063 161.67 488.987 161.69 488.914 161.69Z" fill="#373B42"/>
<path d="M488.914 263.172C488.766 263.172 488.622 263.095 488.54 262.957C488.422 262.751 488.491 262.487 488.699 262.366L497.934 257.018C498.136 256.898 498.404 256.967 498.526 257.175C498.643 257.381 498.575 257.645 498.366 257.767L489.131 263.115C489.063 263.154 488.987 263.172 488.914 263.172Z" fill="#373B42"/>
<path d="M60.3334 238.874C60.1849 238.874 60.0409 238.797 59.9611 238.659C59.8414 238.453 59.9101 238.189 60.1163 238.067L122.722 201.673C124.389 200.706 126.461 200.7 128.13 201.666L191.159 238.067C191.365 238.187 191.436 238.451 191.318 238.657C191.194 238.863 190.93 238.934 190.726 238.814L127.697 202.413C126.295 201.604 124.555 201.606 123.156 202.42L60.5506 238.814C60.4819 238.854 60.4088 238.874 60.3334 238.874Z" fill="#DBDEE4"/>
<path d="M70.9071 238.289C74.0297 236.485 74.0475 233.56 70.9448 231.756C67.8421 229.952 62.7913 229.952 59.6687 231.756C56.546 233.56 56.5305 236.485 59.6332 238.287C62.7359 240.088 67.7845 240.091 70.9071 238.289Z" fill="white"/>
<path d="M65.2621 240.064C63.1434 240.064 61.0247 239.597 59.4157 238.661C57.7801 237.711 56.8826 236.423 56.8848 235.031C56.887 233.633 57.8001 232.336 59.4534 231.381C62.6957 229.508 67.9459 229.511 71.1638 231.381C72.7972 232.332 73.697 233.62 73.6925 235.009C73.6903 236.41 72.7794 237.706 71.1239 238.661C69.5039 239.597 67.383 240.064 65.2621 240.064ZM65.3152 230.829C63.3517 230.829 61.3859 231.262 59.8855 232.128C58.5093 232.924 57.7513 233.954 57.7491 235.031C57.7469 236.099 58.4937 237.123 59.8523 237.912C62.8309 239.645 67.6932 239.643 70.6918 237.912C72.068 237.117 72.8282 236.086 72.8282 235.007C72.8304 233.939 72.0836 232.915 70.7272 232.126C69.2379 231.264 67.2766 230.829 65.3152 230.829Z" fill="#DBDEE4"/>
<path d="M65.3084 232.961C64.0917 232.961 62.9127 233.238 62.075 233.722C61.4035 234.109 61.0178 234.586 61.0156 235.029C61.0156 235.468 61.3924 235.938 62.0528 236.321C62.8839 236.804 64.0563 237.081 65.273 237.081C66.4897 237.081 67.6665 236.804 68.5042 236.321C69.1779 235.933 69.5636 235.455 69.5636 235.011C69.5636 234.573 69.1868 234.103 68.5264 233.719C67.6975 233.238 66.5251 232.961 65.3084 232.961Z" fill="#FA5A2A"/>
<path d="M92.7992 217.306C91.4916 217.306 90.2262 217.603 89.3264 218.123C88.6039 218.54 88.1895 219.052 88.1895 219.529C88.1895 219.998 88.595 220.506 89.3042 220.918C90.1951 221.437 91.4562 221.734 92.7615 221.734C94.0668 221.734 95.3323 221.437 96.2299 220.918C96.9524 220.501 97.3668 219.987 97.3668 219.511C97.3668 219.041 96.9612 218.536 96.2542 218.123C95.3655 217.603 94.1045 217.306 92.7992 217.306Z" fill="#373B42"/>
<path d="M125.273 419.469C124.174 419.469 123.072 419.185 122.09 418.618L75.4037 391.66C75.1976 391.54 75.1267 391.276 75.2442 391.07C75.3638 390.862 75.632 390.793 75.8359 390.913L122.523 417.871C124.227 418.855 126.341 418.85 128.039 417.862L174.406 390.913C174.612 390.793 174.876 390.862 174.998 391.07C175.118 391.276 175.049 391.54 174.843 391.662L128.475 418.611C127.487 419.183 126.379 419.469 125.273 419.469Z" fill="#DBDEE4"/>
<path d="M82.6914 388.605C85.8162 390.409 85.834 393.335 82.7291 395.139C79.6264 396.943 74.5734 396.943 71.4508 395.139C68.3259 393.335 68.3126 390.409 71.4153 388.608C74.518 386.804 79.5665 386.801 82.6914 388.605Z" fill="white"/>
<path d="M77.1007 396.917C74.9797 396.917 72.8566 396.449 71.2366 395.514C69.5833 394.559 68.6702 393.262 68.668 391.864C68.6658 390.474 69.5655 389.184 71.1989 388.233C74.419 386.365 79.6715 386.363 82.9093 388.233C84.5649 389.189 85.4779 390.487 85.4802 391.886C85.4824 393.275 84.5826 394.565 82.9492 395.514C81.3381 396.449 79.2194 396.917 77.1007 396.917ZM77.0475 387.682C75.0839 387.682 73.1226 388.114 71.6333 388.98C70.2747 389.769 69.5279 390.791 69.5301 391.861C69.5323 392.938 70.2902 393.969 71.6665 394.765C74.665 396.498 79.5318 396.498 82.5104 394.765C83.8668 393.976 84.6158 392.954 84.6136 391.886C84.6114 390.806 83.8535 389.776 82.475 388.98C80.9768 388.114 79.011 387.682 77.0475 387.682Z" fill="#DBDEE4"/>
<path d="M77.0897 393.934C75.8708 393.934 74.694 393.657 73.8562 393.174C73.1847 392.786 72.7991 392.31 72.7969 391.866C72.7969 391.427 73.1736 390.958 73.8341 390.574C74.6651 390.091 75.8375 389.814 77.0542 389.814C78.2709 389.814 79.4477 390.091 80.2855 390.574C80.9592 390.962 81.3448 391.441 81.3448 391.884C81.3448 392.323 80.968 392.793 80.3076 393.176C79.481 393.657 78.3064 393.934 77.0897 393.934Z" fill="#FA5A2A"/>
<path d="M104.592 409.589C103.285 409.589 102.019 409.292 101.119 408.772C100.397 408.355 99.9824 407.843 99.9824 407.367C99.9824 406.897 100.388 406.389 101.097 405.977C101.988 405.458 103.249 405.161 104.557 405.161C105.864 405.161 107.127 405.458 108.027 405.977C108.75 406.394 109.164 406.908 109.166 407.384C109.166 407.854 108.761 408.359 108.052 408.772C107.159 409.29 105.897 409.589 104.592 409.589Z" fill="#373B42"/>
<path d="M286.675 315.979C286.527 315.979 286.383 315.901 286.303 315.764C286.183 315.558 286.252 315.294 286.458 315.172L482.759 201.064C482.965 200.944 483.229 201.013 483.351 201.221C483.47 201.427 483.402 201.691 483.196 201.811L286.895 315.919C286.824 315.961 286.751 315.979 286.675 315.979Z" fill="#DBDEE4"/>
<path d="M380.666 258.491C379.359 258.491 378.093 258.788 377.194 259.309C376.471 259.726 376.057 260.238 376.057 260.714C376.057 261.184 376.462 261.692 377.171 262.102C378.062 262.62 379.323 262.917 380.629 262.917C381.934 262.917 383.199 262.62 384.097 262.102C384.82 261.685 385.234 261.171 385.234 260.694C385.234 260.225 384.828 259.719 384.121 259.307C383.233 258.788 381.974 258.491 380.666 258.491Z" fill="#373B42"/>
<path opacity="0.1" d="M61.4378 325.431C54.0135 329.717 53.9736 336.656 61.3514 340.944L326.761 495.215C334.136 499.501 346.112 499.501 353.537 495.215L492.529 414.952C499.953 410.666 499.991 403.725 492.615 399.439L227.206 245.168C219.831 240.88 207.854 240.882 200.43 245.168L61.4378 325.431Z" fill="black"/>
<path d="M498.21 396.59C498.21 399.389 496.337 402.226 492.614 404.369L353.607 484.629C351.368 485.921 348.724 486.83 345.908 487.331C344.093 487.679 342.182 487.852 340.292 487.852C338.401 487.852 336.529 487.697 334.696 487.369C331.819 486.868 329.118 485.959 326.862 484.627L61.448 330.361C57.7625 328.238 55.9297 325.459 55.9297 322.68L55.8477 290.292C55.8477 293.091 57.6805 295.89 61.3483 297.993L326.762 452.279C329.058 453.631 331.779 454.538 334.694 455.021C336.526 455.349 338.399 455.484 340.29 455.484C342.18 455.484 344.073 455.311 345.905 454.963C348.705 454.462 351.329 453.554 353.547 452.279L492.517 372.019C496.26 369.838 498.113 367.039 498.113 364.183L498.21 396.59Z" fill="#BEC4CD"/>
<path d="M345.905 454.962V487.332C344.09 487.68 342.18 487.853 340.289 487.853C338.399 487.853 336.526 487.698 334.693 487.37V455.02C336.526 455.348 338.399 455.483 340.289 455.483C342.182 455.486 344.072 455.31 345.905 454.962Z" fill="#F0F2F5"/>
<path d="M340.172 488.284C335.05 488.284 330.245 487.122 326.631 485.01L61.2194 330.74C57.5272 328.608 55.4927 325.744 55.4927 322.677L55.4062 290.332C55.4062 290.32 55.4062 290.309 55.4062 290.298V290.296C55.4062 290.059 55.5991 289.864 55.8384 289.864C56.0755 289.864 56.2706 290.057 56.2706 290.296V290.329C56.2861 293.089 58.1632 295.681 61.5629 297.63L326.979 451.902C330.469 453.939 335.152 455.058 340.17 455.058C340.209 455.058 340.247 455.058 340.287 455.058C345.2 455.04 349.83 453.919 353.325 451.902L492.31 371.638C495.781 369.612 497.691 366.966 497.691 364.185C497.691 363.945 497.884 363.752 498.123 363.752C498.36 363.752 498.556 363.945 498.556 364.185L498.642 396.583C498.642 399.697 496.576 402.598 492.829 404.752L353.828 485.015C350.189 487.107 345.382 488.268 340.294 488.288C340.252 488.284 340.214 488.284 340.172 488.284ZM56.2817 293.72L56.3592 322.675C56.3592 325.421 58.2386 328.018 61.6538 329.991L327.067 484.263C330.551 486.3 335.203 487.419 340.172 487.419C340.212 487.419 340.247 487.419 340.287 487.419C345.229 487.402 349.883 486.28 353.394 484.261L492.394 403.999C495.865 402.004 497.775 399.371 497.775 396.579L497.698 367.569C496.763 369.368 495.081 371.015 492.742 372.38L353.755 452.645C350.131 454.737 345.349 455.898 340.289 455.916C340.249 455.916 340.209 455.916 340.172 455.916C335.001 455.916 330.166 454.755 326.544 452.642L61.1329 298.372C58.8547 297.069 57.2102 295.478 56.2817 293.72Z" fill="#373B42"/>
<path d="M483.803 409.895C483.566 409.895 483.371 409.702 483.371 409.462V377.05C483.371 376.811 483.566 376.618 483.803 376.618C484.04 376.618 484.235 376.811 484.235 377.05V409.462C484.235 409.702 484.04 409.895 483.803 409.895Z" fill="#373B42"/>
<path d="M123.836 349.202C123.816 350.554 123.353 351.523 122.586 351.966L119.749 353.615C120.516 353.151 120.979 352.203 120.999 350.851C120.999 348.127 119.084 344.821 116.724 343.449L96.0689 331.523C94.8589 330.839 93.7907 330.777 93.0039 331.222L95.8407 329.573C96.6274 329.13 97.6956 329.19 98.9057 329.875L119.561 341.8C121.921 343.172 123.836 346.478 123.836 349.202Z" fill="#373B42"/>
<path d="M119.751 354.047C119.604 354.047 119.46 353.971 119.378 353.834C119.257 353.63 119.323 353.366 119.527 353.244C120.181 352.848 120.551 351.997 120.569 350.844C120.569 348.276 118.747 345.124 116.506 343.821L95.8533 331.896C94.8383 331.319 93.8964 331.211 93.2182 331.594C93.0099 331.709 92.7484 331.639 92.631 331.432C92.5135 331.226 92.5844 330.965 92.7883 330.845L95.6251 329.196C96.5825 328.656 97.8235 328.762 99.12 329.498L119.78 341.423C122.257 342.864 124.272 346.352 124.272 349.2C124.272 349.202 124.272 349.204 124.272 349.206C124.25 350.691 123.729 351.802 122.805 352.336L119.97 353.985C119.899 354.029 119.826 354.047 119.751 354.047ZM94.9292 330.601C95.3658 330.703 95.8201 330.885 96.2833 331.147L116.943 343.072C119.463 344.537 121.435 347.952 121.435 350.849C121.426 351.363 121.36 351.833 121.233 352.252L122.373 351.589C123.022 351.212 123.39 350.363 123.41 349.195C123.407 346.622 121.588 343.471 119.347 342.17L98.6945 330.245C97.6728 329.668 96.7376 329.562 96.0594 329.943L94.9292 330.601Z" fill="#373B42"/>
<path d="M116.723 343.453C119.092 344.821 121.005 348.134 120.996 350.858C120.989 353.581 119.063 354.678 116.694 353.309L96.0346 341.377C93.6655 340.009 91.7529 336.696 91.7617 333.972C91.7684 331.248 93.6943 330.151 96.0634 331.521L116.723 343.453Z" fill="white"/>
<path d="M118.619 354.333C117.954 354.333 117.225 354.115 116.478 353.683L95.8182 341.751C93.336 340.319 91.3215 336.829 91.3281 333.972C91.3326 332.498 91.8556 331.386 92.8041 330.843C93.7549 330.296 94.9915 330.404 96.2769 331.147L116.936 343.079C119.421 344.513 121.433 348.003 121.424 350.858C121.42 352.329 120.897 353.442 119.951 353.987C119.552 354.217 119.104 354.333 118.619 354.333ZM94.1405 331.364C93.8059 331.364 93.5 331.439 93.2363 331.592C92.567 331.975 92.1969 332.822 92.1925 333.974C92.1858 336.554 94.0075 339.708 96.2503 341.002L116.91 352.934C117.92 353.517 118.851 353.626 119.523 353.238C120.192 352.852 120.56 352.008 120.564 350.855C120.573 348.276 118.752 345.122 116.509 343.826L95.8492 331.893C95.2353 331.541 94.6525 331.364 94.1405 331.364Z" fill="#373B42"/>
<path d="M61.4378 282.491C54.0135 286.778 53.9736 293.717 61.3514 298.005L326.761 452.275C334.136 456.562 346.112 456.562 353.537 452.275L492.529 372.013C499.953 367.727 499.991 360.786 492.615 356.5L227.206 202.229C219.831 197.941 207.854 197.943 200.43 202.229L61.4378 282.491Z" fill="#373B42"/>
<path d="M340.131 455.908C335.204 455.908 330.282 454.822 326.543 452.648L61.1341 298.377C57.4419 296.23 55.4096 293.353 55.4141 290.275C55.4185 287.177 57.4818 284.278 61.225 282.117L200.217 201.855C207.739 197.509 219.948 197.509 227.425 201.855L492.835 356.125C496.529 358.273 498.561 361.151 498.555 364.23C498.55 367.33 496.487 370.227 492.744 372.388L353.752 452.65C349.991 454.822 345.057 455.908 340.131 455.908ZM61.44 282.491L61.6549 282.866C58.191 284.867 56.2806 287.5 56.2762 290.277C56.2717 293.036 58.1511 295.647 61.5685 297.633L326.978 451.903C334.214 456.112 346.033 456.112 353.32 451.903L492.311 371.641C495.775 369.64 497.686 367.009 497.69 364.23C497.695 361.471 495.815 358.86 492.398 356.874L226.989 202.604C219.751 198.395 207.932 198.395 200.647 202.604L61.6549 282.864L61.44 282.491Z" fill="#373B42"/>
<path d="M58.4297 290.28C58.4297 292.199 59.9677 294.202 62.6449 295.758L328.056 450.031C331.234 451.879 335.52 452.899 340.132 452.899C344.729 452.899 349.03 451.879 352.242 450.031L491.227 369.766C493.957 368.195 495.529 366.172 495.529 364.219C495.529 362.3 493.991 360.296 491.313 358.741L225.904 204.468C222.726 202.62 218.44 201.6 213.828 201.6C209.232 201.6 204.93 202.62 201.719 204.468L62.7336 284.732C60.001 286.304 58.4297 288.327 58.4297 290.28Z" fill="white"/>
<path d="M340.137 453.328C335.454 453.328 331.088 452.289 327.844 450.4L62.4322 296.13C59.6176 294.494 58.002 292.362 58.002 290.279C58.002 288.172 59.6486 286.013 62.5186 284.357L201.506 204.095C204.784 202.207 209.163 201.167 213.833 201.167C218.518 201.167 222.884 202.207 226.126 204.095L491.537 358.366C494.352 360.001 495.968 362.135 495.968 364.219C495.968 366.328 494.321 368.487 491.451 370.14L352.466 450.403C349.186 452.289 344.809 453.328 340.137 453.328ZM213.833 202.032C209.312 202.032 205.088 203.029 201.938 204.844L62.9508 285.106C60.3534 286.602 58.8663 288.488 58.8663 290.279C58.8663 292.048 60.3245 293.907 62.8665 295.383L328.278 449.656C331.394 451.469 335.603 452.466 340.137 452.466C344.66 452.466 348.884 451.469 352.031 449.654L491.017 369.391C493.614 367.895 495.101 366.012 495.101 364.219C495.101 362.45 493.643 360.591 491.101 359.115L225.689 204.844C222.576 203.029 218.365 202.032 213.833 202.032Z" fill="#373B42"/>
<path d="M178.798 233.883C176.748 235.082 124.541 265.42 122.121 266.827C118.249 269.075 111.933 269.075 108.05 266.838L100.982 262.747C103.405 261.34 168.938 223.259 171.697 221.654L178.765 225.734C182.648 227.982 182.67 231.636 178.798 233.883Z" fill="#373B42"/>
<path d="M115.074 268.939C112.452 268.939 109.831 268.363 107.829 267.213L100.762 263.122C100.629 263.044 100.547 262.903 100.547 262.747C100.547 262.594 100.629 262.45 100.762 262.373L171.477 221.28C171.612 221.202 171.776 221.202 171.911 221.28L178.979 225.36C181.004 226.53 182.117 228.117 182.119 229.821C182.121 231.517 181.018 233.092 179.014 234.256C177.828 234.949 159.848 245.401 125.572 265.32L122.337 267.202C120.335 268.361 117.705 268.939 115.074 268.939ZM101.839 262.745L108.262 266.464C112.031 268.631 118.148 268.629 121.9 266.453L125.136 264.571C159.412 244.652 177.392 234.203 178.577 233.509C180.306 232.507 181.255 231.197 181.255 229.821C181.255 228.436 180.291 227.117 178.546 226.107L171.696 222.153L101.839 262.745Z" fill="#373B42"/>
<path d="M126.126 258.186C124.517 258.186 123.012 257.829 121.893 257.182C120.885 256.599 120.328 255.87 120.326 255.128C120.326 254.396 120.867 253.678 121.849 253.107L165.767 227.58C166.882 226.933 168.387 226.576 170.003 226.576C171.623 226.576 173.134 226.935 174.262 227.587C175.259 228.163 175.809 228.886 175.809 229.624C175.811 230.359 175.266 231.08 174.278 231.656L130.361 257.182C129.244 257.827 127.742 258.186 126.126 258.186Z" fill="white"/>
<path d="M114.737 264.805C113.128 264.805 111.626 264.448 110.504 263.801C109.496 263.22 108.942 262.489 108.939 261.748C108.937 261.015 109.482 260.297 110.469 259.723C111.583 259.076 113.088 258.717 114.704 258.717C116.324 258.717 117.835 259.076 118.963 259.727C119.958 260.303 120.508 261.026 120.51 261.764C120.513 262.5 119.967 263.22 118.979 263.796C117.86 264.446 116.353 264.805 114.737 264.805Z" fill="white"/>
<path d="M114.731 263.57C113.774 263.57 112.881 263.357 112.216 262.974C111.615 262.628 111.287 262.194 111.285 261.753C111.285 261.318 111.607 260.889 112.194 260.547C112.856 260.162 113.752 259.949 114.711 259.949C115.673 259.949 116.573 260.162 117.245 260.549C117.836 260.891 118.162 261.321 118.164 261.76C118.164 262.196 117.843 262.626 117.253 262.967C116.586 263.357 115.691 263.57 114.731 263.57Z" fill="#FA5A2A"/>
<path d="M366.904 459.178C368.435 458.293 369.672 459.022 369.677 460.78C369.681 462.562 368.453 464.689 366.922 465.574C365.35 466.48 364.114 465.775 364.109 463.993C364.105 462.236 365.333 460.084 366.904 459.178Z" fill="#373B42"/>
<path d="M378.361 452.561C379.892 451.677 381.129 452.406 381.134 454.164C381.138 455.946 379.91 458.073 378.379 458.957C376.808 459.864 375.571 459.159 375.566 457.377C375.562 455.62 376.79 453.468 378.361 452.561Z" fill="#373B42"/>
<path d="M389.812 445.946C391.344 445.062 392.58 445.791 392.585 447.549C392.589 449.331 391.361 451.458 389.83 452.343C388.259 453.249 387.022 452.544 387.018 450.762C387.013 449.005 388.241 446.853 389.812 445.946Z" fill="#373B42"/>
<path d="M461.631 404.476C463.162 403.592 464.399 404.321 464.403 406.078C464.408 407.86 463.18 409.988 461.648 410.872C460.077 411.778 458.84 411.073 458.836 409.292C458.832 407.534 460.059 405.382 461.631 404.476Z" fill="#373B42"/>
<path d="M473.09 397.861C474.621 396.977 475.858 397.706 475.862 399.463C475.866 401.245 474.639 403.372 473.107 404.257C471.536 405.163 470.299 404.458 470.295 402.677C470.291 400.919 471.518 398.767 473.09 397.861Z" fill="#373B42"/>
<path d="M440.893 422.922C442.46 422.018 443.73 419.817 443.725 418.018C443.721 416.216 442.442 415.489 440.875 416.393L410.531 433.917C408.964 434.821 407.699 437.017 407.703 438.819C407.708 440.621 408.982 441.35 410.549 440.446L440.893 422.922Z" fill="#373B42"/>
<path d="M309.536 475.006C309.299 475.006 309.104 474.814 309.104 474.574V442.26C309.104 442.02 309.299 441.828 309.536 441.828C309.773 441.828 309.968 442.02 309.968 442.26V474.574C309.968 474.814 309.775 475.006 309.536 475.006Z" fill="#373B42"/>
<path d="M76.9263 339.8C76.6892 339.8 76.4941 339.607 76.4941 339.367V307.055C76.4941 306.816 76.6892 306.623 76.9263 306.623C77.1634 306.623 77.3585 306.816 77.3585 307.055V339.367C77.3585 339.607 77.1656 339.8 76.9263 339.8Z" fill="#373B42"/>
<path d="M246.831 416.706C249.399 418.188 251.472 421.781 251.465 424.733C251.456 427.685 249.371 428.875 246.802 427.39L196.917 398.577C194.349 397.094 192.277 393.502 192.283 390.55C192.292 387.598 194.378 386.408 196.946 387.893L246.831 416.706Z" fill="#F0F2F5"/>
<path d="M246.769 419.659C245.654 419.017 244.754 419.546 244.75 420.827C244.746 422.124 245.641 423.673 246.756 424.318C247.899 424.978 248.799 424.464 248.803 423.168C248.806 421.884 247.913 420.32 246.769 419.659Z" fill="#373B42"/>
<g opacity="0.1">
<path d="M357.623 210.28C356.107 211.156 356.098 212.574 357.605 213.447L483.42 288.156C484.922 289.029 487.373 289.031 488.889 288.156L495.983 284.06C497.499 283.185 497.504 281.767 496.001 280.893L370.187 206.185C368.68 205.31 366.233 205.31 364.717 206.185L357.623 210.28Z" fill="black"/>
</g>
<path d="M358.191 62.1115C359.727 61.2095 361.855 61.3425 364.204 62.6878L480.289 129.717C481.368 130.338 482.388 131.164 483.332 132.139C485.71 134.577 487.572 137.93 488.325 141.195C488.576 142.243 488.709 143.294 488.709 144.298L488.443 275.147C488.443 277.822 487.483 279.684 485.976 280.57L495.417 275.103C496.924 274.216 497.87 272.339 497.884 269.666L498.15 138.804C498.15 137.813 498.032 136.78 497.78 135.73C497.026 132.465 495.18 129.125 492.786 126.674C491.856 125.699 490.807 124.857 489.728 124.236L373.643 57.2226C371.294 55.864 369.166 55.7444 367.63 56.6176L358.191 62.1115Z" fill="#DBDEE4"/>
<path d="M483.992 133.068C486.321 135.457 488.145 138.741 488.883 141.939L498.147 136.585C497.409 133.387 495.601 130.116 493.256 127.713L483.992 133.068Z" fill="#F0F2F5"/>
<path d="M485.978 281C485.829 281 485.685 280.922 485.605 280.785C485.486 280.579 485.554 280.315 485.758 280.195C487.212 279.34 488.012 277.547 488.012 275.145L488.278 144.295C488.278 143.335 488.154 142.325 487.906 141.294C487.179 138.136 485.353 134.827 483.023 132.438C482.07 131.456 481.078 130.665 480.071 130.087L363.991 63.0598C361.852 61.8386 359.877 61.6281 358.428 62.4725L358.415 62.4791C358.415 62.4791 358.412 62.4791 358.41 62.4813C358.202 62.5988 357.94 62.5301 357.819 62.3262C357.699 62.1201 357.768 61.8564 357.974 61.7345C357.983 61.73 357.991 61.7234 357.998 61.7189L367.415 56.2383C369.179 55.241 371.466 55.4559 373.862 56.8433L489.947 123.857C491.046 124.489 492.136 125.36 493.101 126.372C495.569 128.899 497.429 132.274 498.202 135.63C498.455 136.682 498.583 137.748 498.583 138.799L498.317 269.664C498.302 272.403 497.351 274.464 495.638 275.473L486.193 280.94C486.126 280.982 486.053 281 485.978 281ZM360.768 61.1095C361.907 61.1782 363.144 61.5815 364.421 62.3107L480.506 129.34C481.578 129.958 482.636 130.798 483.644 131.835C486.077 134.333 487.986 137.795 488.748 141.097C489.012 142.192 489.145 143.269 489.145 144.297L488.879 275.147C488.879 276.576 488.615 277.824 488.114 278.832L495.206 274.728C496.642 273.881 497.444 272.082 497.458 269.662L497.724 138.799C497.724 137.817 497.604 136.818 497.367 135.827C496.638 132.664 494.814 129.358 492.484 126.973C491.571 126.016 490.55 125.198 489.519 124.606L373.434 57.5924C371.309 56.3646 369.327 56.1518 367.849 56.9873L360.768 61.1095Z" fill="#373B42"/>
<path d="M355.722 67.5188C355.738 62.1622 359.543 60.0059 364.204 62.6986L480.284 129.715C484.956 132.412 488.726 138.941 488.711 144.297L488.664 161.054L355.676 84.2778L355.722 67.5188Z" fill="#373B42"/>
<path d="M488.664 161.484C488.591 161.484 488.516 161.464 488.449 161.426L355.461 84.6478C355.328 84.5702 355.246 84.4284 355.246 84.2732L355.293 67.5164C355.302 64.7772 356.259 62.7206 357.988 61.7277C359.732 60.7215 362.019 60.9365 364.421 62.3239L480.502 129.34C485.282 132.099 489.161 138.81 489.145 144.297L489.099 161.054C489.099 161.209 489.017 161.351 488.884 161.428C488.813 161.466 488.74 161.484 488.664 161.484ZM356.108 84.0272L488.234 160.307L488.281 144.295C488.296 139.082 484.613 132.711 480.07 130.087L363.989 63.0729C361.862 61.8452 359.882 61.6346 358.418 62.4768C356.966 63.3123 356.164 65.103 356.157 67.5209L356.108 84.0272Z" fill="#373B42"/>
<path d="M488.671 161.052L488.445 275.151C488.43 280.521 484.636 282.682 479.964 279.985L363.883 212.969C359.222 210.278 355.442 203.743 355.457 198.373L355.683 84.2734L488.671 161.052Z" fill="white"/>
<g clip-path="url(#clip0_1678_12628)">
<path d="M421.076 171.014C421.026 171.49 420.83 171.872 420.521 172.096C420.212 172.32 419.811 172.372 419.384 172.243C418.957 172.113 418.532 171.811 418.181 171.387C417.83 170.963 417.575 170.443 417.459 169.917C417.343 169.391 417.374 168.891 417.546 168.502C417.718 168.112 418.02 167.858 418.402 167.782C418.783 167.707 419.22 167.814 419.638 168.086C420.056 168.359 420.429 168.779 420.693 169.275C420.844 169.557 420.956 169.855 421.022 170.154C421.087 170.452 421.106 170.745 421.076 171.014Z" fill="#FA5A2A"/>
<path d="M430.25 175.892C430.2 176.367 430.004 176.75 429.695 176.974C429.386 177.198 428.984 177.25 428.558 177.12C428.131 176.991 427.706 176.688 427.355 176.264C427.004 175.84 426.749 175.321 426.633 174.795C426.517 174.269 426.548 173.768 426.72 173.379C426.891 172.99 427.194 172.735 427.575 172.66C427.957 172.584 428.394 172.691 428.812 172.964C429.23 173.236 429.603 173.656 429.867 174.153C430.018 174.434 430.13 174.733 430.195 175.031C430.261 175.33 430.28 175.622 430.25 175.892Z" fill="#FA5A2A"/>
<path d="M440.775 160.631L438.134 153.812L434.969 152.13L438.289 160.7C438.45 161.112 438.503 161.535 438.44 161.899C438.378 162.263 438.203 162.546 437.945 162.701C437.675 162.869 437.328 162.881 436.97 162.735L412.561 149.768L410.325 143.961L406.983 142.184L415.558 164.456L429.484 171.861C432.829 173.64 435.237 170.475 433.651 166.384L432.747 164.055L436.607 166.107C439.952 167.886 442.361 164.721 440.775 160.631ZM429.847 168.494C429.818 168.478 417.151 161.755 417.151 161.755L414.286 154.288L429.606 162.433L431.163 166.457C431.284 166.77 431.344 167.09 431.338 167.388C431.331 167.685 431.258 167.949 431.125 168.155C430.993 168.36 430.805 168.499 430.581 168.558C430.357 168.618 430.104 168.595 429.847 168.494Z" fill="#FA5A2A"/>
<path d="M428.116 152.095L430.363 157.904L427.2 156.222L426.097 153.374C425.743 152.46 425.233 151.596 424.611 150.855C423.989 150.115 423.274 149.521 422.526 149.123L406.337 140.515L406.312 140.449L404.58 135.979C411.303 139.553 431.922 150.511 433.606 151.412L435.37 155.952L428.116 152.095Z" fill="#FA5A2A"/>
<path d="M407.326 136.109L403.982 134.332L403.167 132.225C401.766 128.353 403.888 127.235 403.888 127.235L407.326 136.109Z" fill="#FA5A2A"/>
</g>
<path d="M483.759 281.583C482.518 281.583 481.153 281.173 479.745 280.359L363.665 213.343C358.884 210.584 355.006 203.869 355.022 198.373L355.248 84.2735C355.248 84.1183 355.33 83.9765 355.463 83.8989C355.598 83.8236 355.76 83.8213 355.895 83.8989L488.883 160.677C489.016 160.755 489.098 160.897 489.098 161.052L488.872 275.151C488.863 277.899 487.906 279.961 486.177 280.958C485.454 281.377 484.639 281.583 483.759 281.583ZM356.11 85.0225L355.886 198.375C355.87 203.594 359.554 209.973 364.097 212.597L480.178 279.613C482.305 280.84 484.282 281.055 485.749 280.211C487.203 279.375 488.005 277.578 488.012 275.151L488.238 161.3L356.11 85.0225Z" fill="#373B42"/>
<path d="M396.436 90.1887C394.466 89.0517 392.884 89.9537 392.877 92.2165C392.87 94.4593 394.444 97.2052 396.414 98.3421C398.382 99.479 399.967 98.5571 399.973 96.3143C399.978 94.0493 398.404 91.3256 396.436 90.1887Z" fill="white"/>
<path d="M381.622 81.6341C379.669 80.506 378.069 81.3992 378.063 83.6619C378.056 85.9047 379.647 88.6595 381.6 89.7875C383.57 90.9244 385.152 90.0025 385.159 87.7597C385.165 85.4969 383.592 82.771 381.622 81.6341Z" fill="white"/>
<path d="M366.804 73.073C364.847 71.9427 363.261 72.847 363.254 75.1164C363.247 77.3658 364.825 80.1161 366.782 81.2464C368.757 82.3855 370.344 81.4614 370.35 79.2119C370.357 76.9447 368.779 74.2121 366.804 73.073Z" fill="white"/>
<path d="M381.56 160.367C380.007 159.469 378.743 160.196 378.739 161.974L378.701 175.386C378.697 177.173 379.949 179.342 381.505 180.24L457.807 224.289C459.36 225.187 460.621 224.469 460.628 222.682L460.666 209.27C460.67 207.493 459.418 205.314 457.862 204.416L381.56 160.367Z" fill="white"/>
<path d="M459.07 225.11C458.607 225.11 458.104 224.961 457.59 224.664L381.29 180.615C379.592 179.635 378.265 177.337 378.272 175.387L378.311 161.974C378.316 160.955 378.684 160.181 379.355 159.796C380.029 159.41 380.891 159.479 381.78 159.995L458.082 204.042C459.779 205.022 461.107 207.32 461.1 209.27L461.06 222.683C461.056 223.704 460.688 224.48 460.019 224.864C459.733 225.028 459.411 225.11 459.07 225.11ZM380.304 160.414C380.109 160.414 379.934 160.458 379.783 160.545C379.391 160.771 379.176 161.278 379.174 161.976L379.134 175.389C379.129 177.033 380.29 179.041 381.72 179.868L458.02 223.917C458.636 224.272 459.19 224.345 459.587 224.114C459.977 223.891 460.192 223.381 460.194 222.681L460.234 209.268C460.238 207.652 459.055 205.602 457.647 204.789L381.345 160.742C380.966 160.525 380.612 160.414 380.304 160.414Z" fill="#373B42"/>
<path d="M446.783 201.484C446.597 201.378 446.444 201.464 446.444 201.677L446.433 205.535L443.532 201.929C443.479 201.861 443.419 201.81 443.361 201.776C443.244 201.71 443.131 201.714 443.071 201.803L442.276 202.913C442.187 203.049 442.242 203.312 442.404 203.516L445.305 207.122L442.393 207.375C442.231 207.392 442.174 207.592 442.262 207.829L443.049 209.852C443.109 210.01 443.22 210.145 443.337 210.214C443.395 210.247 443.455 210.265 443.508 210.258L446.42 210.005L446.409 213.864C446.409 214.076 446.562 214.342 446.748 214.449L448.321 215.357C448.508 215.464 448.66 215.377 448.66 215.165L448.672 211.306L451.573 214.912C451.626 214.981 451.686 215.032 451.741 215.065C451.856 215.131 451.967 215.125 452.031 215.038L452.827 213.928C452.916 213.793 452.86 213.529 452.698 213.325L449.797 209.719L452.709 209.467C452.871 209.449 452.929 209.25 452.84 209.012L452.053 206.989C451.989 206.827 451.878 206.694 451.763 206.628C451.706 206.595 451.648 206.579 451.593 206.583L448.68 206.836L448.691 202.978C448.691 202.765 448.539 202.499 448.355 202.393L446.783 201.484Z" fill="#FA5A2A"/>
<path d="M432.849 193.437C432.663 193.331 432.516 193.422 432.516 193.637L432.505 197.495L429.598 193.883C429.544 193.814 429.484 193.763 429.429 193.73C429.314 193.663 429.203 193.67 429.139 193.756L428.352 194.871C428.254 195 428.31 195.265 428.472 195.469L431.373 199.075L428.461 199.328C428.299 199.345 428.241 199.545 428.339 199.787L429.117 201.806C429.181 201.967 429.292 202.1 429.407 202.167C429.465 202.2 429.522 202.215 429.578 202.211L432.496 201.965L432.485 205.823C432.485 206.036 432.629 206.298 432.815 206.404L434.389 207.313C434.575 207.419 434.728 207.333 434.728 207.12L434.739 203.262L437.64 206.867C437.693 206.936 437.753 206.987 437.811 207.02C437.928 207.087 438.041 207.082 438.101 206.994L438.897 205.883C438.985 205.748 438.939 205.489 438.777 205.285L435.869 201.673L438.788 201.427C438.95 201.409 438.999 201.205 438.91 200.968L438.123 198.944C438.063 198.787 437.953 198.652 437.835 198.583C437.778 198.55 437.718 198.532 437.665 198.539L434.752 198.791L434.764 194.933C434.764 194.72 434.611 194.454 434.427 194.348L432.849 193.437Z" fill="#FA5A2A"/>
<path d="M418.914 185.394C418.721 185.283 418.575 185.374 418.575 185.587L418.564 189.445L415.656 185.833C415.605 185.766 415.548 185.715 415.49 185.682C415.375 185.616 415.262 185.62 415.204 185.711L414.409 186.821C414.32 186.956 414.366 187.216 414.528 187.42L417.436 191.032L414.517 191.278C414.355 191.296 414.307 191.5 414.395 191.737L415.182 193.76C415.242 193.918 415.353 194.053 415.468 194.119C415.526 194.153 415.583 194.168 415.634 194.161L418.553 193.915L418.542 197.774C418.542 197.987 418.686 198.248 418.879 198.359L420.452 199.268C420.638 199.374 420.785 199.283 420.785 199.068L420.796 195.21L423.703 198.822C423.757 198.891 423.816 198.942 423.872 198.975C423.987 199.041 424.098 199.035 424.162 198.948L424.949 197.834C425.046 197.705 424.991 197.439 424.829 197.235L421.922 193.623L424.84 193.377C425.002 193.359 425.06 193.16 424.962 192.918L424.184 190.899C424.12 190.737 424.009 190.604 423.894 190.538C423.836 190.505 423.779 190.489 423.723 190.494L420.805 190.74L420.816 186.881C420.816 186.668 420.672 186.407 420.485 186.3L418.914 185.394Z" fill="#FA5A2A"/>
<path d="M404.971 177.346C404.785 177.239 404.632 177.326 404.63 177.538L404.619 181.397L401.718 177.791C401.665 177.722 401.605 177.671 401.547 177.638C401.43 177.572 401.317 177.576 401.257 177.665L400.461 178.775C400.372 178.91 400.428 179.174 400.59 179.378L403.491 182.984L400.579 183.236C400.417 183.254 400.359 183.453 400.448 183.691L401.235 185.714C401.294 185.871 401.405 186.007 401.523 186.075C401.58 186.108 401.64 186.126 401.693 186.12L404.605 185.867L404.594 189.725C404.594 189.938 404.747 190.204 404.933 190.31L406.507 191.219C406.693 191.325 406.846 191.239 406.846 191.026L406.857 187.168L409.758 190.774C409.811 190.842 409.871 190.893 409.927 190.926C410.042 190.993 410.153 190.986 410.217 190.9L411.012 189.79C411.101 189.654 411.046 189.391 410.884 189.187L407.983 185.581L410.895 185.328C411.057 185.311 411.114 185.111 411.026 184.874L410.239 182.851C410.175 182.689 410.064 182.556 409.949 182.489C409.891 182.456 409.833 182.441 409.778 182.445L406.866 182.698L406.877 178.839C406.877 178.627 406.724 178.361 406.54 178.254L404.971 177.346Z" fill="#FA5A2A"/>
<path d="M391.032 169.298C390.846 169.192 390.7 169.283 390.7 169.498L390.689 173.356L387.781 169.744C387.728 169.675 387.668 169.624 387.613 169.591C387.497 169.524 387.387 169.531 387.322 169.617L386.536 170.732C386.438 170.861 386.493 171.127 386.655 171.331L389.556 174.936L386.644 175.189C386.482 175.207 386.425 175.406 386.522 175.648L387.3 177.667C387.364 177.829 387.475 177.961 387.591 178.028C387.648 178.061 387.706 178.077 387.761 178.072L390.68 177.826L390.669 181.685C390.669 181.897 390.813 182.159 390.999 182.265L392.573 183.174C392.765 183.285 392.912 183.194 392.912 182.981L392.923 179.123L395.824 182.729C395.877 182.797 395.937 182.848 395.994 182.881C396.112 182.948 396.225 182.944 396.285 182.855L397.08 181.745C397.169 181.609 397.122 181.35 396.961 181.146L394.053 177.534L396.972 177.288C397.134 177.27 397.182 177.066 397.094 176.829L396.307 174.806C396.247 174.648 396.136 174.513 396.019 174.444C395.961 174.411 395.901 174.393 395.848 174.4L392.936 174.653L392.947 170.794C392.947 170.581 392.803 170.32 392.61 170.209L391.032 169.298Z" fill="#FA5A2A"/>
<path d="M388.852 195.864C387.766 195.237 386.875 195.744 386.872 196.992L386.828 212.297C386.824 213.547 387.708 215.076 388.796 215.703L439.86 245.186C440.946 245.813 441.837 245.305 441.839 244.058L441.883 228.752C441.888 227.502 441.003 225.973 439.915 225.346L388.852 195.864Z" fill="#FA5A2A"/>
<path d="M370.583 66.8013C370.435 66.8013 370.291 66.7237 370.211 66.5863C370.091 66.3802 370.16 66.1165 370.368 65.9946L379.457 60.7244C379.659 60.6048 379.927 60.6735 380.047 60.8818C380.166 61.0879 380.098 61.3516 379.889 61.4735L370.801 66.7437C370.732 66.7836 370.659 66.8013 370.583 66.8013Z" fill="#373B42"/>
<path d="M121.863 298.01L121.903 312.632C121.903 314.223 122.951 315.817 125.048 317.04L150.091 331.508C150.616 331.818 151.179 332.07 151.76 332.303C155.197 333.624 159.623 333.682 163.156 332.498C163.951 332.226 164.709 331.895 165.387 331.508L275.292 268.046C277.428 266.803 278.494 265.192 278.494 263.581L278.454 248.938C278.454 250.549 277.386 252.18 275.252 253.386L165.33 316.887C164.669 317.275 163.931 317.605 163.156 317.838C159.623 319.061 155.195 319.004 151.76 317.683C151.157 317.47 150.577 317.197 150.051 316.887L124.988 302.42C122.912 301.192 121.863 299.601 121.863 298.01Z" fill="#BEC4CD"/>
<path d="M125.048 293.553C120.811 295.999 120.789 299.969 124.997 302.415L150.047 316.878C154.258 319.325 161.106 319.325 165.343 316.878L275.256 253.404C279.494 250.957 279.516 246.988 275.305 244.541L250.255 230.078C246.045 227.632 239.196 227.632 234.959 230.078L125.048 293.553Z" fill="white"/>
<path d="M157.687 319.136C154.84 319.136 151.994 318.509 149.833 317.253L124.786 302.79C122.618 301.529 121.424 299.829 121.426 298C121.43 296.161 122.638 294.448 124.834 293.18L234.75 229.706C239.1 227.192 246.156 227.192 250.478 229.706L275.528 244.169C277.695 245.43 278.888 247.13 278.885 248.958C278.881 250.797 277.673 252.51 275.477 253.778L165.562 317.25C163.388 318.507 160.535 319.136 157.687 319.136ZM125.264 293.925C123.347 295.033 122.29 296.48 122.288 297.998C122.286 299.505 123.325 300.941 125.218 302.041L150.265 316.504C154.352 318.879 161.023 318.877 165.132 316.504L275.045 253.029C276.962 251.921 278.019 250.476 278.021 248.956C278.023 247.449 276.984 246.013 275.094 244.913L250.044 230.45C245.959 228.077 239.291 228.077 235.18 230.45L125.264 293.925Z" fill="#373B42"/>
<path d="M151.76 317.681V332.304C155.197 333.625 159.623 333.682 163.156 332.499V317.836C159.623 319.06 155.197 319 151.76 317.681Z" fill="#F0F2F5"/>
<path d="M157.718 333.779C155.586 333.779 153.463 333.42 151.604 332.704C150.879 332.414 150.347 332.159 149.868 331.878L124.83 317.413C122.662 316.147 121.468 314.449 121.468 312.63L121.428 298.034C121.428 298.025 121.428 298.016 121.428 298.007C121.428 297.768 121.621 297.575 121.86 297.575C122.097 297.575 122.292 297.768 122.292 298.007V298.027C122.301 299.517 123.334 300.942 125.204 302.045L150.265 316.511C150.77 316.81 151.333 317.073 151.901 317.273C155.232 318.554 159.589 318.614 163.011 317.428C163.751 317.204 164.451 316.898 165.107 316.513L275.033 253.012C276.933 251.939 278.021 250.454 278.021 248.938C278.021 248.699 278.214 248.506 278.453 248.506C278.69 248.506 278.885 248.699 278.885 248.938L278.925 263.581C278.925 265.42 277.713 267.138 275.508 268.421L165.601 331.884C164.923 332.274 164.147 332.618 163.292 332.911C161.552 333.489 159.631 333.779 157.718 333.779ZM122.301 300.616L122.332 312.63C122.332 314.13 123.374 315.562 125.264 316.666L150.307 331.131C150.748 331.392 151.245 331.63 151.921 331.9C155.216 333.165 159.571 333.241 163.019 332.086C163.817 331.813 164.544 331.49 165.174 331.131L275.075 267.67C277.001 266.548 278.063 265.094 278.063 263.579L278.032 251.522C277.449 252.367 276.578 253.131 275.468 253.761L165.548 317.257C164.837 317.676 164.072 318.011 163.281 318.248C159.635 319.509 155.156 319.447 151.606 318.082C150.988 317.862 150.387 317.583 149.833 317.253L124.772 302.79C123.699 302.158 122.866 301.423 122.301 300.616Z" fill="#373B42"/>
<path d="M141.244 191.097L141.574 290.242C141.583 293.025 143.405 295.8 147.055 297.912C154.404 302.187 166.347 302.187 173.743 297.921L241.616 258.714C245.342 256.571 247.192 253.749 247.192 250.939L246.853 151.804C246.853 154.625 244.994 157.428 241.288 159.569L173.412 198.77C166.017 203.045 154.065 203.034 146.725 198.77C143.075 196.646 141.253 193.872 141.244 191.097Z" fill="#F0F2F5"/>
<path d="M160.389 301.965C155.396 301.965 150.407 300.864 146.62 298.661C142.819 296.46 140.72 293.473 140.709 290.246L140.381 191.102L142.11 191.097C142.118 193.675 143.911 196.135 147.158 198.025C154.263 202.152 165.843 202.149 172.981 198.023L240.855 158.827C244.166 156.914 245.988 154.421 245.988 151.81L247.716 151.806V151.81V151.813L248.058 250.942C248.058 254.215 245.924 257.242 242.05 259.47L174.178 298.674C170.364 300.868 165.373 301.965 160.389 301.965ZM142.125 195.975L142.438 290.239C142.449 292.826 144.239 295.286 147.488 297.165C154.58 301.289 166.164 301.294 173.312 297.174L241.185 257.967C244.503 256.061 246.329 253.566 246.329 250.939L246.006 156.668C244.995 158.022 243.552 159.259 241.719 160.318L173.843 199.519C166.229 203.92 153.864 203.92 146.289 199.517C144.516 198.486 143.116 197.287 142.125 195.975Z" fill="#DBDEE4"/>
<path d="M146.81 183.312C139.417 187.58 139.379 194.499 146.724 198.767C154.068 203.036 166.016 203.04 173.407 198.772L241.287 159.571C248.681 155.303 248.712 148.38 241.367 144.111C234.023 139.843 222.082 139.843 214.691 144.111L146.81 183.312Z" fill="white"/>
<path d="M160.054 202.393C155.141 202.393 150.236 201.309 146.506 199.142C142.83 197.003 140.804 194.136 140.809 191.066C140.813 187.977 142.867 185.089 146.593 182.939L214.475 143.739C221.973 139.408 234.135 139.411 241.586 143.739C245.268 145.88 247.291 148.75 247.286 151.821C247.282 154.911 245.23 157.796 241.504 159.946L173.622 199.146C169.876 201.312 164.963 202.393 160.054 202.393ZM147.027 183.686C143.579 185.678 141.677 188.3 141.675 191.068C141.671 193.816 143.541 196.418 146.943 198.395C154.159 202.59 165.934 202.59 173.192 198.4L241.074 159.199C244.521 157.209 246.42 154.587 246.424 151.819C246.429 149.069 244.556 146.465 241.152 144.486C233.943 140.295 222.17 140.295 214.91 144.486L147.027 183.686Z" fill="#373B42"/>
<path d="M233.121 156.94C232.996 157.042 232.855 157.124 232.711 157.206C228.38 159.691 221.399 159.711 217.088 157.206C216.944 157.124 216.823 157.042 216.698 156.94C212.922 154.538 212.942 150.841 216.678 148.439C216.823 148.337 216.967 148.233 217.131 148.151C221.461 145.647 228.462 145.624 232.773 148.131C232.897 148.193 232.999 148.275 233.101 148.337C236.937 150.762 236.937 154.518 233.121 156.94Z" fill="#373B42"/>
<path d="M224.878 159.498C221.97 159.498 219.069 158.86 216.868 157.581C216.704 157.488 216.562 157.393 216.418 157.273C214.515 156.067 213.44 154.432 213.438 152.701C213.433 150.968 214.499 149.326 216.443 148.076C216.587 147.971 216.751 147.858 216.935 147.765C221.365 145.201 228.576 145.195 232.987 147.756C233.053 147.79 233.14 147.845 233.217 147.898L233.317 147.963C235.314 149.224 236.409 150.881 236.411 152.639C236.413 154.385 235.334 156.038 233.372 157.291C233.235 157.401 233.08 157.492 232.922 157.583C230.697 158.86 227.783 159.498 224.878 159.498ZM224.982 146.695C222.22 146.695 219.455 147.307 217.345 148.528C217.178 148.612 217.052 148.703 216.928 148.791C215.224 149.888 214.297 151.271 214.302 152.699C214.306 154.124 215.239 155.5 216.928 156.575C217.077 156.694 217.181 156.763 217.3 156.83C221.462 159.25 228.277 159.25 232.495 156.83C232.617 156.759 232.739 156.692 232.843 156.606C232.856 156.595 232.871 156.584 232.889 156.573C234.605 155.482 235.551 154.086 235.549 152.637C235.546 151.187 234.596 149.789 232.869 148.698L232.739 148.614C232.688 148.581 232.637 148.545 232.579 148.514C230.482 147.302 227.734 146.695 224.982 146.695Z" fill="#373B42"/>
<path d="M171.822 192.34C171.658 192.464 171.494 192.566 171.308 192.668C166.955 195.172 159.956 195.172 155.646 192.668C155.564 192.626 155.482 192.566 155.4 192.504C151.459 190.082 151.479 186.283 155.38 183.839C155.504 183.757 155.606 183.675 155.728 183.613C160.038 181.106 167.039 181.106 171.35 183.613C171.514 183.695 171.658 183.796 171.802 183.901C175.476 186.303 175.476 189.918 171.822 192.34Z" fill="#373B42"/>
<path d="M163.466 194.968C160.55 194.968 157.642 194.326 155.43 193.042C155.355 193.005 155.253 192.934 155.153 192.858C153.148 191.626 152.026 189.966 152.02 188.198C152.011 186.423 153.125 184.745 155.151 183.473L155.238 183.413C155.337 183.342 155.433 183.278 155.539 183.225C159.938 180.665 167.139 180.665 171.569 183.238C171.728 183.318 171.892 183.431 172.054 183.548C173.938 184.78 174.986 186.403 174.993 188.105C174.997 189.807 173.962 191.436 172.074 192.692C171.899 192.823 171.719 192.934 171.522 193.045C169.295 194.326 166.378 194.968 163.466 194.968ZM163.533 182.163C160.785 182.163 158.039 182.77 155.947 183.987C155.851 184.033 155.794 184.076 155.732 184.12L155.619 184.197C153.844 185.31 152.875 186.726 152.882 188.191C152.886 189.649 153.861 191.05 155.625 192.134C155.725 192.205 155.783 192.251 155.838 192.28C160.042 194.72 166.877 194.72 171.092 192.291C171.265 192.196 171.414 192.103 171.562 191.992C171.569 191.987 171.575 191.981 171.582 191.976C173.227 190.886 174.133 189.51 174.126 188.105C174.122 186.702 173.211 185.337 171.564 184.257C171.425 184.158 171.301 184.067 171.157 183.996C169.051 182.775 166.29 182.163 163.533 182.163Z" fill="#373B42"/>
<path d="M233.119 156.94C232.995 157.042 232.853 157.124 232.709 157.206C228.378 159.69 221.397 159.71 217.087 157.206C216.943 157.124 216.821 157.042 216.697 156.94L216.677 148.439L216.595 117.272C216.575 111.009 214.789 106.41 211.71 104.644C208.57 102.878 203.643 103.658 198.163 106.82C183.793 115.136 171.661 136.101 171.723 152.63L171.805 183.9L171.825 192.34C171.661 192.464 171.497 192.566 171.311 192.668C166.958 195.172 159.959 195.172 155.649 192.668C155.567 192.626 155.485 192.566 155.403 192.504L155.383 183.838L155.301 152.672C155.239 130.25 170.451 103.864 189.951 92.5924C200.749 86.3715 211.362 85.5692 219.819 90.374C228.296 95.1987 232.977 104.746 233.019 117.232L233.101 148.339L233.119 156.94Z" fill="#F0F2F5"/>
<path d="M163.464 194.969C160.548 194.969 157.64 194.326 155.428 193.043C155.353 193.005 155.251 192.934 155.151 192.859C155.043 192.777 154.967 192.641 154.967 192.506L154.865 152.674C154.803 130.113 170.117 103.559 189.731 92.2205C200.683 85.9109 211.443 85.1242 220.027 90.0021C228.639 94.9043 233.406 104.574 233.446 117.233L233.548 156.943C233.548 157.071 233.492 157.193 233.392 157.275C233.251 157.395 233.084 157.49 232.92 157.585C228.468 160.139 221.268 160.139 216.866 157.583C216.702 157.49 216.56 157.395 216.416 157.275C216.319 157.193 216.261 157.071 216.261 156.945L216.159 117.277C216.137 111.18 214.437 106.712 211.49 105.024C208.487 103.335 203.702 104.126 198.372 107.2C184.097 115.462 172.088 136.268 172.147 152.632L172.249 192.342C172.249 192.477 172.185 192.606 172.077 192.688C171.897 192.823 171.715 192.936 171.514 193.049C169.293 194.326 166.376 194.969 163.464 194.969ZM155.832 192.278C155.834 192.28 155.836 192.28 155.838 192.282C160.042 194.723 166.877 194.723 171.093 192.294C171.199 192.236 171.294 192.176 171.389 192.116L171.288 152.63C171.228 135.993 183.432 114.844 197.944 106.446C203.542 103.215 208.64 102.424 211.917 104.268C215.142 106.116 217.004 110.854 217.026 117.27L217.128 156.726C217.181 156.763 217.239 156.796 217.301 156.832C221.463 159.252 228.277 159.252 232.495 156.832C232.559 156.794 232.626 156.759 232.688 156.719L232.586 117.23C232.546 104.895 227.934 95.4894 219.603 90.7489C211.295 86.0284 200.841 86.8152 190.165 92.9651C170.793 104.161 155.67 130.388 155.732 152.67L155.832 192.278Z" fill="#373B42"/>
<path d="M173.412 198.77C166.017 203.045 154.065 203.034 146.725 198.77C143.075 196.647 141.253 193.872 141.244 191.097L141.574 290.242C141.583 293.025 143.405 295.8 147.055 297.912C154.404 302.187 166.347 302.187 173.743 297.921" fill="#373B42"/>
<path d="M160.389 301.965C155.396 301.965 150.407 300.864 146.62 298.661C142.819 296.46 140.72 293.473 140.709 290.246L140.381 191.102L142.11 191.097C142.118 193.675 143.911 196.135 147.158 198.025C154.263 202.152 165.843 202.149 172.981 198.023L173.846 199.519C166.231 203.92 153.867 203.92 146.292 199.517C144.519 198.488 143.118 197.289 142.127 195.977L142.44 290.242C142.451 292.828 144.242 295.288 147.49 297.167C154.582 301.292 166.166 301.296 173.314 297.176L174.178 298.672C170.364 300.868 165.373 301.965 160.389 301.965Z" fill="#DBDEE4"/>
<path d="M160.39 301.54C155.477 301.54 150.568 300.456 146.838 298.286C143.177 296.165 141.154 293.309 141.142 290.244L140.814 191.099C140.814 190.86 141.007 190.667 141.244 190.665H141.247C141.484 190.665 141.679 190.858 141.679 191.095C141.688 193.834 143.556 196.425 146.945 198.395C154.16 202.59 165.94 202.59 173.198 198.395L241.071 159.199C244.52 157.204 246.421 154.58 246.421 151.808C246.421 151.571 246.614 151.376 246.854 151.376C247.091 151.376 247.286 151.568 247.286 151.806L247.627 250.941C247.627 254.051 245.57 256.947 241.836 259.092L173.962 298.297C170.21 300.46 165.297 301.54 160.39 301.54ZM141.69 194.494L142.007 290.241C142.018 292.987 143.886 295.58 147.272 297.542C154.486 301.737 166.263 301.739 173.528 297.55L241.402 258.346C244.857 256.358 246.76 253.729 246.76 250.943L246.432 155.188C245.502 156.974 243.828 158.605 241.504 159.948L173.628 199.144C166.13 203.479 153.963 203.477 146.506 199.144C144.247 197.83 142.612 196.236 141.69 194.494Z" fill="#373B42"/>
<path d="M206.477 209.233C201.065 212.358 196.668 219.977 196.686 226.225C196.699 230.608 198.891 233.172 202.102 233.17L197.492 258.533C197.129 260.583 198.337 261.655 199.994 260.698L213.252 253.041C214.91 252.083 216.108 249.621 215.734 247.999L210.996 228.033C214.198 224.332 216.368 219.248 216.357 214.864C216.339 208.615 211.913 206.093 206.477 209.233Z" fill="#373B42"/>
<path d="M198.839 261.482C198.468 261.482 198.127 261.38 197.837 261.179C197.125 260.68 196.844 259.689 197.063 258.459L201.587 233.585C198.338 233.319 196.263 230.491 196.25 226.229C196.232 219.849 200.725 212.059 206.258 208.863C209.035 207.258 211.67 207.012 213.678 208.167C215.673 209.315 216.777 211.695 216.785 214.869C216.799 219.19 214.764 224.261 211.464 228.153L216.152 247.904C216.575 249.736 215.294 252.363 213.468 253.42L200.21 261.07C199.738 261.345 199.269 261.482 198.839 261.482ZM202.101 232.738C202.229 232.738 202.351 232.796 202.431 232.893C202.513 232.991 202.549 233.121 202.526 233.248L197.917 258.61C197.761 259.481 197.919 260.177 198.336 260.47C198.679 260.711 199.191 260.66 199.778 260.323L213.036 252.668C214.518 251.811 215.646 249.546 215.312 248.096L210.576 228.135C210.545 228 210.58 227.858 210.669 227.754C213.924 223.991 215.937 219.053 215.923 214.869C215.914 212.016 214.966 209.902 213.248 208.914C211.52 207.916 209.191 208.167 206.693 209.607C201.396 212.666 197.099 220.121 197.117 226.225C197.128 230.243 199.038 232.74 202.101 232.74C202.101 232.738 202.101 232.738 202.101 232.738Z" fill="#373B42"/>
<path d="M258.284 312.599C224.866 331.767 224.726 362.834 257.927 382.002C291.128 401.17 345.082 401.17 378.5 382.002C411.919 362.834 412.169 331.747 378.966 312.579C345.765 293.411 291.702 293.431 258.284 312.599Z" fill="white"/>
<g clip-path="url(#clip1_1678_12628)">
<path fill-rule="evenodd" clip-rule="evenodd" d="M287.255 359.303C273.571 349.361 275.005 335.725 290.456 328.845C305.908 321.966 329.526 324.448 343.21 334.39C356.894 344.332 355.461 357.968 340.009 364.848C324.557 371.727 300.939 369.245 287.255 359.303Z" stroke="#373B42"/>
<path d="M319.247 338.579C323.906 341.964 323.408 346.61 318.136 348.958C312.864 351.305 304.814 350.464 300.156 347.079C295.497 343.695 295.994 339.048 301.266 336.701C306.538 334.354 314.589 335.195 319.247 338.579Z" fill="#BEC4CD"/>
<path d="M326.489 348.625C332.863 346.238 341.55 347.025 348.081 350.064C347.667 355.002 343.943 359.612 337.035 362.688C330.127 365.763 321.364 366.713 312.835 365.755C309.22 361.419 309.965 356.435 315.569 353.488C319.059 351.653 322.528 350.108 326.489 348.625Z" fill="#FA5A2A"/>
</g>
<path d="M318.129 396.773C296.215 396.773 274.337 391.975 257.709 382.374C241.557 373.048 232.67 360.627 232.688 347.398C232.705 334.09 241.719 321.599 258.065 312.222C291.577 293.001 345.907 292.994 379.177 312.202C395.293 321.508 404.162 333.91 404.143 347.125C404.125 360.46 395.092 372.977 378.709 382.374C361.979 391.973 340.036 396.773 318.129 396.773ZM258.495 312.974C242.428 322.189 233.572 334.415 233.552 347.4C233.534 360.307 242.266 372.461 258.141 381.627C291.156 400.687 345.049 400.687 378.284 381.627C394.387 372.392 403.265 360.139 403.283 347.128C403.3 334.234 394.586 322.098 378.747 312.954C345.714 293.883 291.77 293.894 258.495 312.974Z" fill="#373B42"/>
<path d="M318.148 386.597C300.708 386.597 283.297 382.788 270.064 375.167C257.211 367.765 250.138 357.905 250.152 347.405C250.166 336.841 257.339 326.927 270.348 319.484C297.017 304.227 340.254 304.221 366.73 319.468C379.556 326.854 386.614 336.699 386.598 347.188C386.584 357.773 379.395 367.709 366.358 375.167C353.044 382.786 335.582 386.597 318.148 386.597ZM270.69 320.08C257.904 327.394 250.856 337.1 250.84 347.406C250.826 357.652 257.775 367.299 270.408 374.575C296.682 389.703 339.571 389.703 366.02 374.575C378.834 367.244 385.9 357.518 385.914 347.19C385.928 336.955 378.993 327.322 366.388 320.064C340.1 304.927 297.17 304.935 270.69 320.08Z" fill="#373B42" fill-opacity="0.17"/>
<path d="M372.696 410.431C371.229 411.278 370.486 412.393 370.491 413.507C370.473 414.622 371.204 415.737 372.662 416.584C374.132 417.437 376.064 417.858 377.977 417.858C379.89 417.858 381.829 417.437 383.296 416.59L438.801 384.544C441.735 382.837 441.751 380.085 438.825 378.385C437.367 377.538 435.446 377.111 433.533 377.111C431.609 377.117 429.681 377.532 428.203 378.385L372.696 410.431Z" fill="#BEC4CD"/>
<path d="M398.99 211.942C398.958 211.487 399.03 211.19 399.205 211.052L398.773 210.812C398.396 210.603 398.115 210.557 397.932 210.674C397.747 210.783 397.669 211.04 397.698 211.444L398.095 217.123L396.953 216.49L396.555 210.811C396.5 210.019 396.667 209.507 397.056 209.277C397.452 209.042 398.012 209.126 398.736 209.528L401.065 210.818C401.738 211.191 402.254 211.66 402.613 212.224C402.979 212.783 403.186 213.413 403.235 214.113L403.289 214.884C403.341 215.618 403.195 216.076 402.852 216.259C402.51 216.442 401.988 216.339 401.285 215.95C400.598 215.568 400.063 215.094 399.683 214.526C399.301 213.95 399.087 213.329 399.041 212.663L398.99 211.942ZM401.245 214.614C401.556 214.786 401.787 214.846 401.94 214.793C402.092 214.74 402.157 214.544 402.133 214.207L402.09 213.587C402.068 213.275 401.974 212.992 401.807 212.737C401.647 212.487 401.43 212.285 401.157 212.134L400.88 211.98C400.614 211.833 400.417 211.813 400.289 211.92C400.169 212.024 400.119 212.223 400.139 212.518L400.176 213.049C400.202 213.42 400.298 213.725 400.464 213.963C400.637 214.204 400.898 214.422 401.245 214.614ZM407.254 217.945C407.291 217.966 407.32 218.026 407.342 218.127C407.37 218.232 407.395 218.428 407.415 218.715C407.434 218.985 407.435 219.156 407.419 219.228C407.41 219.304 407.387 219.332 407.35 219.311L407.017 219.127C406.426 218.799 405.965 218.353 405.634 217.789C405.303 217.224 405.112 216.58 405.061 215.854L404.649 209.96L405.791 210.593L406.197 216.399C406.222 216.745 406.295 217.028 406.417 217.25C406.546 217.476 406.737 217.658 406.988 217.798L407.254 217.945ZM410.255 218.879C410.301 219.545 410.164 219.972 409.843 220.158C409.522 220.337 409.069 220.264 408.485 219.94L407.354 219.313C407.28 219.272 407.227 219.033 407.197 218.594C407.164 218.122 407.184 217.906 407.258 217.947L408.389 218.574C408.618 218.701 408.799 218.736 408.93 218.679C409.06 218.614 409.116 218.455 409.099 218.202L408.956 216.165L410.11 216.805L410.255 218.879ZM408.201 214.361L408.114 213.121L409.445 213.859L409.532 215.098L408.201 214.361ZM420.366 225.213C420.602 225.344 420.786 225.381 420.917 225.324C421.055 225.263 421.115 225.11 421.098 224.865L420.955 222.816L422.108 223.456L422.247 225.441C422.287 226.006 422.562 226.43 423.072 226.713L423.449 226.922C423.523 226.963 423.576 227.22 423.609 227.692C423.64 228.13 423.618 228.329 423.544 228.288L423.123 228.054C422.465 227.69 422.013 227.22 421.767 226.646C421.54 226.958 421.105 226.936 420.461 226.579L416.658 224.471C416 224.106 415.487 223.635 415.12 223.059C414.752 222.474 414.543 221.823 414.493 221.107L414.357 219.159L415.499 219.792L415.623 221.563C415.648 221.917 415.74 222.224 415.9 222.483C416.061 222.742 416.3 222.959 416.618 223.135L420.366 225.213ZM419.583 219.965L419.668 221.179L416.652 219.507L416.567 218.293L419.583 219.965ZM424.779 227.659C425.016 227.79 425.199 227.828 425.33 227.77C425.468 227.709 425.528 227.552 425.511 227.299L425.368 225.263L426.521 225.902L426.66 227.888C426.7 228.453 426.975 228.876 427.485 229.159L427.862 229.368C427.936 229.409 427.989 229.662 428.021 230.125C428.053 230.572 428.031 230.775 427.957 230.734L427.536 230.501C426.878 230.136 426.426 229.666 426.18 229.092C425.953 229.404 425.518 229.382 424.874 229.025L423.544 228.288C423.47 228.247 423.418 228.007 423.387 227.569C423.354 227.096 423.374 226.881 423.448 226.922L424.779 227.659ZM424.2 231.265L424.113 230.026L425.444 230.763L425.53 232.003L424.2 231.265ZM430.863 230.302C430.91 230.969 430.773 231.395 430.452 231.582C430.13 231.76 429.677 231.688 429.093 231.364L427.962 230.737C427.888 230.696 427.836 230.456 427.805 230.018C427.772 229.546 427.793 229.33 427.867 229.371L428.998 229.998C429.227 230.125 429.407 230.16 429.538 230.103C429.669 230.037 429.725 229.878 429.707 229.625L429.565 227.589L430.718 228.228L430.863 230.302ZM429.781 223.368L429.864 224.545L428.699 223.899L428.617 222.723L429.781 223.368ZM430.832 225.738L430.917 226.952L427.9 225.28L427.815 224.066L430.832 225.738Z" fill="white"/>
<defs>
<clipPath id="clip0_1678_12628">
<rect width="45.1972" height="35.0509" fill="white" transform="matrix(0.882948 0.469472 -0.104528 0.994522 403.445 127)"/>
</clipPath>
<clipPath id="clip1_1678_12628">
<rect width="73.5007" height="73.5007" fill="white" transform="matrix(0.913545 -0.406737 0.809017 0.587785 251.928 340.193)"/>
</clipPath>
</defs>
</svg>
